<?xml version="1.0" encoding="UTF-8"?>
<svg id="_圖層_1" data-name="圖層 1" xmlns="http://www.w3.org/2000/svg" viewBox="0 0 512 512">
  <path d="M361.9,367.2c-1.8,0-3.5-.5-5.3-.5v-5.8h-18.5v-6.9h-16.9v-12.7h10.9l.8,5.8c3.8.4,7.6.6,11.4.6,1.3,0,2.4-.6,3.7-.6,11.7-.2,23.6-.2,35.2.6v6.3h39.2v-5.8s5.8,0,5.8,0l.5-6.9h5.2c0,0,.6-5.3.6-5.3l-12.7-.5-.5-5.6-5.6-.2.3-18.6h9.3c.5,0,1.5-.3,1.9-.8v-18.3h-6.4s0-5.8,0-5.8l-5.8-.6-.7-5.7-5.3-.4-1,18.8h-5.8s0,6.4,0,6.4h-6.4s0,6.4,0,6.4h-5.8c0,0-.6,6.4-.6,6.4h-39.2v-12.7h-5.3s0,6.4,0,6.4h-5.8s0,6.4,0,6.4l-6.4.2-.5,5.6h-41.8v-5.8s-5.8,0-5.8,0l-.6-6.3h-5.2v-19.1h-11.1l.5-12.7h11.6v-6.9s5.8,0,5.8,0l.5-18h6.4s0-5.8,0-5.8h6.4s0-5.8,0-5.8h40.2l-.5,6.4h11.9c1.6-1.5.5-4.3.8-6.4h7.4v-5.8s32.8.5,32.8.5v5.3s5.8.6,5.8.6v5.8c0,0,5.4,0,5.4,0l-.5,11.1h6.4c.3,1.5-.8,6.3.9,6.8l11.3-.5.5-11.6,5.7-.6.6-5.2h5.8s.5-11.7.5-11.7h5.8s.5-36,.5-36h-5.8s0-11.6,0-11.6h-5.3s0-5.8,0-5.8h-5.8s-.5-6.1-.5-6.1c-.9.4-2-.2-2.4-.2h-8.7v-5.8h-26.5v6.4h-11.1v5.3s-10.8.5-10.8.5c-.2,0-.9,1.7-.9,1.9v9.3h11.1l-.5,6.4,5.3-.3.5,6.1h4.8c0,6.1-.7,11.9,0,18h-5.8s.5,5.8.5,5.8h-61.4s0-5.8,0-5.8h-20.1v-6.3s-5.8-.5-5.8-.5v-11.1s-5.8-.6-5.8-.6v-5.7c0,0-35-.6-35-.6l-.5,6.1-5.9.2v6.4s-6.4,0-6.4,0v5.8s-6.4,0-6.4,0v11.1h-5.8s-1.6,51.4-1.6,51.4h5.8s0,5.8,0,5.8h6.9s0,5.8,0,5.8l17.5.5v5.8s3.7,0,3.7,0l-.5,18.5-15.4-.5.5-5.3-6.4-.5c.6-1.1,1-4.9,0-5.6l-5.9-.2v-5.8s-5.7-.6-5.7-.6v-5.8c0,0-5.9,0-5.9,0v-6.4s-5.8,0-5.8,0v-5.8s-5.7-.6-5.7-.6l-.7-5.1-5.8-.6v-5.3s-6.3-.6-6.3-.6l.2-4.7-6.1-1v-6.4s-5.8,0-5.8,0l.5-5.3h-6.4s0-6.4,0-6.4l-5.8-.5.5-5.3-6.1-.5.3-5.9h17.5l.5-12.2h5.8s.5-18,.5-18c-4.2.6-8,.3-12.2,0v12.2h-17.5l-.3-5.8h-5.5s0,5.8,0,5.8h-10.9c-.1,0-.3-.4-.5-.4l-.7.7v5.5c0,0,17.9,0,17.9,0v6.4s4.8,0,4.8,0v6.4s-10.6-.5-10.6-.5v5.8s4.8,0,4.8,0v6.4s5.3,0,5.3,0v5.8s6.4.5,6.4.5v5.3h-18l.2,5.8,5.6.5v5.8s5.2,0,5.2,0l.6,6.3h5.3s0,5.8,0,5.8l6.3.6v11.4c.8,1.6,5.4.4,5.8.8v5.8s5.8,0,5.8,0v11.6h5.8s0,5.8,0,5.8h5.8s0,6.4,0,6.4l5.6.5-.3,11.1,6.4.8.5,5.6h5.8s0,5.8,0,5.8h5.3s0,12.7,0,12.7h-5.8s0-6.4,0-6.4h-5.8v29.4c0,1.5-4.7-.2-5.8.3.1,1.7-.6,3.3-.6,5s2.2,7.7-1.3,7.7h-17.2v-6.9s-5.8,0-5.8,0l-.2-5.9c-1.5-1.6-6,.9-5.9-1.1v-4.8c0,0-5.5-.5-5.5-.5v-5.8s-5.8,0-5.8,0v-5.8s-11.1.5-11.1.5v5.3s-34.9-.5-34.9-.5l-.2-5.9c-.8-1.2-4.5,0-5.6-.7s0-4.4,0-5.8c.1-4.1-.1-8.3,0-12.5h5.8s.5-5.8.5-5.8h-12.2v6.4s-41.3-.5-41.3-.5v-48.2h11.6l.5-5.8h-5.8s0-5.8,0-5.8h-5.8s0-6.4,0-6.4l-6.1-.5.3-11.1h-5.8v-12.2h-20.7v-6.4h14.8v-16.7c0-.2.7-.4.5-.8h-15.4v-6c0,0,.8-.7.8-.7.2,0,.4.4.5.4h14l.6-71.7c.6-2,4.3,0,5.7-.3l.5-18h5.8s0-6.4,0-6.4h5.8s0-6.4,0-6.4h6.4s0-5.8,0-5.8h5.8s0-6.4,0-6.4l28.6.5-.5,5.8,6.6.5.3,5.9h6.4s-.5,12.7-.5,12.7l6.4.2v5.6s41.8.5,41.8.5v-6.4s5.8,0,5.8,0l.8-11.7,5.1-.5v-5.8s6.3-.6,6.3-.6v-5.8h12.2v-6.4s22.8.2,22.8.2l.5,6.1h6.4s.5,6.1.5,6.1l5.9.2v5.8s6.4,0,6.4,0l-.5,12.2h6.4s0,18.5,0,18.5l5.8.5-.5,27.5h41.6c.2,0,.8,1,1.3-.3v-5.5c0,0,6.2-.5,6.2-.5l.2-5.9,5.8.5v-5.3h7.9l.5-6.9h19.1l.5-16.4,6.1-.5c1.5-2.1-1.9-9.3.5-11.7h23v5.8h22.2l.5,6.1,5.9.2-.5,16.9h25.9v6.9h10.3c1.7,1.1.2,4.7.9,5.7l5.8.6.5,5.8,5.8-.5v6.4s5.3,0,5.3,0v11.1h5.8s-.5,48.2-.5,48.2l-5.8-.5-.5,11.7h-5.8s0,5.8,0,5.8h-5.5c-.2,0-.9,1.7-.9,1.9v9.8h-5.3v7.4h10.9c1.6-1.7.5-4.7.8-6.9h12.2l.5-6.4h11.1v6.4s-11.1.3-11.1.3l-.5,6.1h-6.4s0,6.4,0,6.4h-11.6v6.9s46.6,0,46.6,0v6.4h-40.8v4.9c0,.3,1.2.9,1.3.9h9.8v6.4s5.8,0,5.8,0l-.5,18.5h-5.8s-.5,5.8-.5,5.8h-4.8v18.5l-5.1.5-.2,5.9h-6.4s0,6.4,0,6.4h-36.8c-1.7.9-.3,6.4-.8,6.9h-5.8s0,6.4,0,6.4h-21.7v6.4s-45.5.5-45.5.5l-.5,5.8h-6.4s0,6.4,0,6.4l-20.7.3c-1.4,1.4.5,4.8,0,6.6h-11.4c-.2,0-.4.7-.8.5v-32.3h-24.6c-.2,0-.4.7-.8.5v-40.2h13.2v7.4l5.9.2.5,5.6h5.8s0,6.4,0,6.4h5.8s0,6.4,0,6.4l6.4.5-.5,6.3h14.8s0,6.4,0,6.4h52.7c1.9-1.7.3-4.6.3-6.4,9.1.5,18.4-.3,27.5,0l-.5-6.4h-27c0,2.1,0,4.3,0,6.4ZM215.2,118.8h-18.5v5.8s-5.3.2-5.3.2l-.5,5.6-5.8-.5v13.2c-2-.1-4.7-1.5-6.4.3v11.4h-58.5s-1.3-.9-1.3-.9v-5.5c0,0-5.9,0-5.9,0v-12.7h-5.8s0-5.8,0-5.8h-5.8s0-5.8,0-5.8h-17.5l.3,5.3-6.1.5v6.4s-5.8,0-5.8,0v5.8s-6.4,0-6.4,0v18h-5.8s-1.1,65.7-1.1,65.7l17.5.5v-5.8s-5.8-.6-5.8-.6c-.8-6.6.5-6.3,6.3-5.8l.5-6.4c.3-.4,4.2,1.5,5.6,0l.3-17.5h5.8s0-12.2,0-12.2l5.8.5v-6.4s5.8,0,5.8,0v-5.5c.6-1.3,1.1-.3,1.3-.3h23l-.5,5.8h5.8s0,6.4,0,6.4h5.5s.9-5.8.9-5.8l5.3-.2,1-5.6,5-.5.2-5.9,23.8-.5v6.4s12.2.5,12.2.5v5.8s5.8,0,5.8,0v5.8c0,0,5.8.6,5.8.6v17.5h11.6v6.4s-6.4,0-6.4,0v24.4h-6.4s.3,5.3.3,5.3l-6.1.5v5.8s-5.8,0-5.8,0v6.4s5.8,0,5.8,0l-.5,5.8,5.9.2.5,6.1,5.9.2.5,6.1h5.3v-16.2c0-.1.6-1.8.9-1.9h5.5s.5-27.5.5-27.5h6.4s0-11.6,0-11.6l5.6-.5.8-5.6,5.8-.2v-5.8s5.3,0,5.3,0l.5-33.4h-5.8s.5-18.5.5-18.5h-6.4s0-12.2,0-12.2h-5.3s0-5.8,0-5.8h-6.4s.5-5.8.5-5.8ZM357.7,160.1c0-1.9.3-4-.5-5.8h6.4v-17.5c-5.8-1.6-11.6,1.2-17.5-.5l-.5,29.7h6.4s-.5-5.8-.5-5.8c2.1,0,4.2,0,6.4,0,0,2,0,3.9-.3,5.8l5.6.5v-6.4c-1.8,0-3.5,0-5.3,0ZM385.7,142.7h-16.9l-.6,22.5c0,.4.5,1.3.8,1.3h9c.3,0,1.1.8,1.9.5v-6.4s-5,0-5,0c-1.3-.5-.3-1.1-.3-1.3v-10.9h5.3v11.4c1.4,1.5,3.9.6,5.8.8v-18ZM142.7,185.6v17.5h5.3s0-6.4,0-6.4h12.2v-11.6h18v11.6h5.8v-16.9h-5.8s0-6,0-6c-.5-2.2-20.3.2-23.3-.4v6.4s-5.8,0-5.8,0v5.8s-6.4,0-6.4,0ZM124.7,178.7h-17.5l-.5,5.8-5.3-.3-.5,6.1c-.4.4-5.1-.8-5.8.8v11.9h11.6v-12.7l18,.5v12.2c1.9-.2,4.4.7,5.8-.8v-17.7h-5.8s0-5.8,0-5.8ZM366.7,207.3h-34.9v5.8h-10.6v5.3s51.9.5,51.9.5l-.5-5.8h-5.8s0-5.8,0-5.8ZM106.7,209.4h-11.1l-.5,11.1h-5.8s0,12.2,0,12.2h5.3s0,5.3,0,5.3l23.8.5v-5.8s11.1,0,11.1,0v-5.8s-5.1-.5-5.1-.5l-.2-5.3c-5.7.7-11.7-1.3-17.2,0l-.8-.8c0-.2.5-.4.5-.5v-10.3ZM130,221l.3-6.4c-.7-1-4.3-.3-5.6-.5v6.9s5.3,0,5.3,0ZM77,232.7h-18v11.1h11.6v-5.8s6.4,0,6.4,0v-5.3ZM147.4,239h-16.9v6.4s-6.4,0-6.4,0v5c-.6,1.3-1.1.3-1.3.3h-28.3l.5-6.4h-24.4v5.3s-5.8,0-5.8,0c0,2.6.1,5.1,0,7.7s-.8,2.8-.5,3.6c.5,1.6,4.9.6,6.3.9l-.5,11.9c.3,1.5,4.5.6,5.8.8v5.8s6.4,0,6.4,0v5.8s38.7.5,38.7.5v-5.8s14,.5,14,.5c1.6-.5.5-4.3.9-5.7l16.9-1.1v-5.3s-5.9-.2-5.9-.2l-.5-5.6h-5.8s.6-6.8.6-6.8h6.3c0,0,0-5.9,0-5.9h5.3s0-5.8,0-5.8h-5.3s0-5.8,0-5.8ZM384.7,249.1h-20.7v6.4s-5.8-.5-5.8-.5v6.4c-.6.6-5-1-5.8.3v11.4h11.6v-6.4h14.3v6.4h11.6l.5-18h-5.8s0-5.8,0-5.8ZM331.7,254.9h-27v5.3s-6.4,0-6.4,0v12.7h17.5s0-6.4,0-6.4h16.4l1.1,5.7,11,.6c-.5-1.6,1.6-5.6-.3-6.3h-5c0,0,.5-5.9.5-5.9l-7.4-.6-.5-5.3ZM345,279.3h-12.2v13.2h-18v-12.7h-10.6v6.4s-12.7.5-12.7.5l-.5,18,5.8-.5.5,6.9,29.8-.6c1.5-.5,1-5,.3-6.3h10.3c1.6-.8.3-5.9.8-6.4h5.8s.5-18.5.5-18.5ZM364,279.3h-6.4s-.5,24.9-.5,24.9h27l-.5-6.4h6.4s0-5.8,0-5.8h5.5c.6-.2.8-1.4.8-1.9v-10.9h-18.5v12.7h-13.8v-12.7ZM134.7,287.2v11.6h1.6s.3-2.1.3-2.1l.3,2.1h3.2s0,5.3,0,5.3c1,.4,1.9-.9,2.4-.9s1.7,1.1,3.7.9,1.8-.9,2.1-.9c.7,0,5,2.5,5-.2h.8c.6,1.9,4.6,1.4,5.8,0,.5,2,2.9.8,4.5,1.1l.5-4.5,4.8-.2.5-12.2h-35.5ZM99.8,328h22.8v-5.8s6.4,0,6.4,0v-29.1c-1.9.4-5-1-5.6,1.1-1.2.3-.6-.7-.9-.9-.8-.5-4.8-.4-5.5.9l-.6-1.1h-21.9s-.5,27.8-.5,27.8l.9,1.3h5.5c0,0-.5,5.9-.5,5.9ZM81.3,304.2h-11.1v36s23.3,0,23.3,0v-18h-12.2v-18ZM157.5,311.1h-17.2c-1.9,1.5.7,10.6-.3,11.7h-5.3s-.5,12.2-.5,12.2h-5.8s-.5,11.1-.5,11.1h-4.8s-.5,13.2-.5,13.2h5.3s-.5,5.8-.5,5.8h18.5v-5.8s5.8,0,5.8,0v-6.4s5.3,0,5.3,0l.5-41.8ZM175.5,311.1h-11.6l-.5,42.4,5.3-.5c.2,1.7.5,2.7,2.1,3.4l-1.6.3v2.6c0,0,5,0,5,0l.3,2.7h2.1s-.8,1.6-.8,1.6l-1.3-1v3.2s6.3,0,6.3,0v2c.1,0,1.7,0,1.7,0v1.6c-2.7-.6-2.2,3.1.8,2.7s1.7-1.2,1.8-1c.3,1.8,2.2.2,1.7,3.1h1.5c.5,1.5-.9.9-1.1,1.4s0,1.6,0,2.3h5.2c0,0,0,2.6,0,2.6l1.6.3-1.6.3v2.6s5-.1,5-.1l.8-.7v-46.9c.1,0-5.2,0-5.2,0l-.2-5.9-5.6-.5v-6.4s-5.8,0-5.8,0v-5.8s-5.8,0-5.8,0v-6.4Z"/>
  <path d="M257.1,244.4l15.6-14.8,3.9,4-13.5,13.5c-.9,1.2,2.4,2.9,2.4,3.4l-8.7,8.7-4.5-5.5,6.3-6.5-1.5-2.8Z"/>
  <path d="M407.4,221c-1,.8-6.1-6.2-6.8-7.2l2.6-4.9c.7-.2.9.1,1.3.5,1.8,1.6,3.4,5,5.5,6.7l-2.6,5Z"/>
  <path d="M215.2,118.8l-.5,5.8h6.4s0,5.8,0,5.8h5.3s0,12.2,0,12.2h6.4s-.5,18.5-.5,18.5h5.8s-.5,33.4-.5,33.4h-5.3s0,5.8,0,5.8l-5.8.2-.8,5.6-5.6.5v11.6h-6.4s-.5,27.5-.5,27.5h-5.5c-.2,0-.9,1.7-.9,1.9v16.2h-5.3s-.5-6.1-.5-6.1l-5.9-.2-.5-6.1-5.9-.2.5-5.8h-5.8s0-6.4,0-6.4h5.8s0-5.8,0-5.8l6.1-.5-.3-5.3h6.4v-24.4h6.4s0-6.4,0-6.4h-11.6v-17.5l-5.8-.6v-5.8c0,0-5.9,0-5.9,0v-5.8s-12.2-.5-12.2-.5v-6.4s-23.8.5-23.8.5l-.2,5.9-5,.5-1,5.6-5.3.2-.9,5.9h-5.5s0-6.4,0-6.4h-5.8s.5-5.8.5-5.8h-23c-.2,0-.8-1-1.3.3v5.5c0,0-5.9,0-5.9,0v6.4s-5.8-.5-5.8-.5v12.2s-5.8,0-5.8,0l-.3,17.5c-1.4,1.5-5.2-.4-5.6,0l-.5,6.4c-5.8-.5-7.1-.8-6.3,5.8l5.8.6v5.8s-17.5-.5-17.5-.5l1.1-65.7h5.8s0-18,0-18h6.4s0-5.8,0-5.8h5.8s0-6.4,0-6.4l6.1-.5-.3-5.3h17.5v5.8s5.8,0,5.8,0v5.8s5.8,0,5.8,0v12.7h5.8s0,5.5,0,5.5l1.3.9h58.5v-11.4c1.7-1.7,4.3-.4,6.4-.3v-13.2l5.8.5.5-5.6,5.3-.2v-5.8s18.5,0,18.5,0ZM202.5,138.2c-.4,3,.3,6.7,0,9.8l-6.4.5v6.3h18.5l.5-24.9h-6.4s0,6.4,0,6.4h-5.5c-.2,0-.8,1.6-.9,1.9ZM89.7,142.1h-6.4s0,5.8,0,5.8h-5.8s0,11.6,0,11.6h11.4l.8-.8v-16.7Z" fill="#fff"/>
  <path d="M147.4,239v5.8s5.3,0,5.3,0v5.8h-5.3s0,5.8,0,5.8h-6.3c0,0-.6,6.9-.6,6.9h5.8s.5,5.6.5,5.6l5.9.2v5.3s-16.9,1.1-16.9,1.1c-.4,1.4.7,5.2-.9,5.7l-14-.5v5.8s-38.7-.5-38.7-.5v-5.8s-6.4,0-6.4,0v-5.8c-1.2-.2-5.4.6-5.8-.8l.5-11.9c-1.4-.2-5.8.7-6.3-.9s.5-2.5.5-3.6c0-2.6-.1-5.1,0-7.7h5.8s0-5.3,0-5.3h24.4l-.5,6.4h28.3c.2,0,.8,1,1.3-.3v-5c0,0,6.4,0,6.4,0v-6.4s16.9,0,16.9,0ZM87.6,262.3v-10.9c0-.2,1-.8-.3-1.3h-4.4c0,0,0,5.8,0,5.8h-6.4s0,6.4,0,6.4h11.1Z" fill="#fff"/>
  <path d="M175.5,311.1v6.4s5.8,0,5.8,0v5.8s5.8,0,5.8,0v6.4s5.6.5,5.6.5l.2,5.9h5.3s-.1,46.9-.1,46.9l-.8.7h-5c0,.1,0-2.5,0-2.5l1.6-.3-1.6-.3v-2.6c0,0-5.3,0-5.3,0,0-.7-.2-1.6,0-2.3s1.6,0,1.1-1.4h-1.5c.5-2.9-1.4-1.4-1.7-3.2-.2-.1-1.1.9-1.8,1-2.9.5-3.5-3.3-.8-2.7v-1.6s-1.5,0-1.5,0v-2c-.1,0-6.4,0-6.4,0v-3.2s1.3,1,1.3,1l.8-1.6h-2.1s-.3-2.7-.3-2.7h-4.9s0-2.6,0-2.6l1.6-.3c-1.6-.8-1.9-1.7-2.1-3.4l-5.3.5.5-42.4h11.6Z" fill="#fff"/>
  <path d="M157.5,311.1l-.5,41.8h-5.3s0,6.4,0,6.4h-5.8s0,5.8,0,5.8h-18.5l.5-5.8h-5.3s.5-13.2.5-13.2h4.8s.5-11.1.5-11.1h5.8s.5-12.2.5-12.2h5.3c1-1-1.6-10.1.3-11.6h17.2Z" fill="#fff"/>
  <path d="M345,279.3l-.5,18.5h-5.8c-.4.4.8,5.5-.8,6.4h-10.3c.7,1.3,1.2,5.8-.3,6.3l-29.8.6-.5-6.9-5.8.5.5-18,12.7-.5v-6.4s10.6,0,10.6,0v12.7h18v-13.2h12.2Z" fill="#fff"/>
  <path d="M99.8,328l.5-5.8h-5.5c0,0-.9-1.3-.9-1.3l.5-27.8h21.9s.6,1.1.6,1.1c.6-1.3,4.7-1.4,5.5-.9s-.3,1.2.9.9c.6-2.1,3.6-.7,5.6-1.1v29.1s-6.4,0-6.4,0v5.8s-22.8,0-22.8,0ZM105.1,298.9v17.5h9.8c.5,0,2-.3,2.4-.8v-17.2l-8.2.6-1.3-1.6-.3,1.6h-2.4Z" fill="#fff"/>
  <path d="M106.7,209.4v10.3c0,.2-.5.3-.5.5l.8.8c5.6-1.2,11.5.7,17.2,0l.2,5.3,5.1.5v5.8h-11.1v5.8s-23.8-.5-23.8-.5v-5.3s-5.3,0-5.3,0v-12.2h5.8s.5-11.1.5-11.1h11.1Z" fill="#fff"/>
  <path d="M384.7,249.1v5.8s5.8,0,5.8,0l-.5,18h-11.6v-6.4h-14.3v6.4h-11.6v-11.4c.8-1.2,5.2.4,5.8-.3v-6.4s5.8.5,5.8.5v-6.4h20.7Z" fill="#fff"/>
  <path d="M364,279.3v12.7h13.8v-12.7h18.5v10.9c0,.5-.2,1.6-.8,1.8h-5.5c0,0,0,5.9,0,5.9h-6.4s.5,6.4.5,6.4h-27l.5-24.9h6.4Z" fill="#fff"/>
  <path d="M142.7,185.6h6.4s0-5.8,0-5.8h5.8s0-6.4,0-6.4c3,.5,22.8-1.9,23.3.4v6s5.8,0,5.8,0v16.9h-5.8v-11.6h-18v11.6h-12.2v6.4s-5.3,0-5.3,0v-17.5Z" fill="#fff"/>
  <polygon points="81.3 304.2 81.3 322.2 93.4 322.2 93.4 340.2 70.1 340.2 70.1 304.2 81.3 304.2" fill="#fff"/>
  <path d="M331.7,254.9l.5,5.3,7.4.6-.5,5.8h5c2,.7-.2,4.7.3,6.4l-11-.6-1.1-5.7h-16.4v6.4s-17.5,0-17.5,0v-12.7h6.4s0-5.3,0-5.3h27Z" fill="#fff"/>
  <path d="M134.7,287.2h35.5s-.5,12.2-.5,12.2l-4.8.2-.5,4.5c-1.6-.3-4,.9-4.5-1.1-1.2,1.4-5.3,1.9-5.8,0h-.8c0,2.7-4.4.2-5,.2s-1.1.8-2.1.9c-2.1.2-3.2-.9-3.7-.9s-1.4,1.3-2.4.9v-5.3s-3.2,0-3.2,0l-.3-2.1-.3,2.1h-1.6s0-11.6,0-11.6Z" fill="#fff"/>
  <path d="M124.7,178.7v5.8s5.8,0,5.8,0v17.7c-1.4,1.5-3.9.6-5.8.8v-12.2l-18-.5v12.7h-11.6v-11.9c.8-1.6,5.4-.4,5.8-.8l.5-6.1,5.3.3.5-5.8h17.5Z" fill="#fff"/>
  <polygon points="366.7 207.3 366.7 213.1 372.5 213.1 373 218.9 321.1 218.4 321.1 213.1 331.7 213.1 331.7 207.3 366.7 207.3" fill="#fff"/>
  <path d="M357.7,160.1c-2.1,0-4.2,0-6.4,0l.5,5.8h-6.4s.5-29.7.5-29.7c5.8,1.7,11.7-1.1,17.5.5v17.5h-6.4c.9,1.8.5,3.9.5,5.8,1.8,0,3.5,0,5.3,0v6.4s-5.6-.5-5.6-.5c.4-1.9.3-3.9.3-5.8ZM357.7,142.1h-5.8s0,6.3,0,6.3c1.8.9,3.8.6,5.8.6v-6.9Z" fill="#fff"/>
  <path d="M385.7,142.7v18c-1.9-.2-4.4.7-5.8-.8v-11.4h-5.3v10.9c0,.2-1,.8.3,1.3h5c0,0,0,6.4,0,6.4-.7.3-1.6-.5-1.9-.5h-9c-.3,0-.8-.9-.8-1.3l.6-22.5h16.9Z" fill="#fff"/>
  <polygon points="77 232.7 77 238 70.7 238 70.7 243.8 59 243.8 59 232.7 77 232.7" fill="#fff"/>
  <path d="M130,221h-5.3s0-6.9,0-6.9c1.3.2,4.9-.5,5.6.5l-.3,6.4Z" fill="#fff"/>
  <path d="M202.5,138.2c0-.3.6-1.8.9-1.9h5.5s0-6.3,0-6.3h6.4s-.5,24.9-.5,24.9h-18.5v-6.3s6.4-.5,6.4-.5c.3-3.1-.4-6.8,0-9.8Z"/>
  <polygon points="89.7 142.1 89.7 158.8 88.9 159.6 77.6 159.6 77.6 148 83.4 148 83.4 142.1 89.7 142.1"/>
  <path d="M87.6,262.3h-11.1v-6.4s6.4,0,6.4,0v-5.8s4.4,0,4.4,0c1.3.5.3,1.1.3,1.3v10.9Z"/>
  <path d="M105.1,298.9h2.4s.3-1.6.3-1.6l1.3,1.6,8.2-.6v17.2c-.3.5-1.9.8-2.4.8h-9.8v-17.5Z"/>
  <path d="M357.7,142.1v6.9c-1.9,0-4,.3-5.8-.6v-6.3c0,0,5.8,0,5.8,0Z"/>
</svg>