<svg viewBox="0 0 600 340" xmlns="http://www.w3.org/2000/svg">
<g fill="none" stroke="#D42A1D" stroke-width="0.7" stroke-linejoin="round">
<path d="M596.9,222.5 L597.9,222.7 L597.6,223.6 L595.6,223.6 L596.1,222.3 L596.9,222.5 Z M0.0,220.1 L0.1,220.9 L598.9,221.4 L597.9,221.7 L597.7,221.1 L600.0,220.1 L0.0,220.1 Z" />
<path d="M356.5,194.9 L362.8,198.5 L362.9,199.5 L365.3,201.2 L364.6,203.2 L365.7,204.8 L365.3,207.5 L367.2,210.6 L365.9,211.5 L362.5,212.6 L357.6,212.6 L356.2,209.1 L351.2,207.3 L349.4,204.2 L348.9,200.9 L351.3,199.0 L350.8,197.4 L351.4,196.2 L350.7,195.3 L356.5,194.9 Z" />
<path d="M285.6,147.3 L285.5,150.2 L280.1,150.1 L280.1,154.4 L278.5,154.6 L278.5,157.8 L271.9,157.8 L271.6,158.4 L271.6,157.7 L275.4,157.5 L276.8,153.9 L279.2,152.1 L281.0,148.6 L285.3,148.2 L285.6,147.3 Z" />
<path d="M95.3,111.7 L87.6,108.6 L86.7,107.2 L86.9,106.1 L84.8,105.4 L84.5,104.1 L82.5,102.9 L83.3,100.2 L80.5,99.1 L77.7,96.0 L74.2,93.7 L70.9,95.2 L68.3,93.4 L65.0,92.9 L65.0,77.2 L72.5,78.5 L76.0,77.3 L78.5,77.5 L83.7,76.4 L84.8,77.1 L86.4,75.9 L90.4,77.6 L92.6,76.4 L92.9,77.7 L97.5,77.0 L107.9,78.5 L110.2,79.4 L107.8,80.2 L110.8,80.5 L116.8,80.1 L118.5,81.1 L120.3,80.2 L118.6,79.5 L119.7,78.9 L123.1,78.7 L126.1,80.0 L130.9,80.6 L135.9,80.4 L135.7,79.4 L137.2,79.1 L139.8,79.6 L139.8,81.2 L140.9,79.9 L142.2,79.9 L142.9,78.2 L139.2,76.5 L139.3,74.7 L141.3,73.5 L145.2,74.5 L147.5,76.4 L146.0,77.2 L149.1,77.5 L149.1,79.2 L151.3,77.9 L153.3,79.0 L152.8,80.2 L154.4,81.4 L157.4,78.7 L157.5,76.9 L162.3,77.3 L164.5,78.1 L164.6,78.9 L163.4,79.8 L164.6,80.7 L164.4,81.5 L161.1,82.7 L157.1,82.4 L154.5,85.4 L148.8,87.3 L148.7,88.4 L146.8,88.6 L142.9,91.9 L142.2,95.1 L144.6,95.4 L146.2,98.2 L148.5,97.9 L158.3,101.2 L162.9,101.4 L163.1,104.6 L164.3,106.4 L166.8,108.0 L168.1,107.5 L169.0,105.8 L168.1,103.1 L167.0,102.2 L169.6,101.5 L172.4,99.1 L171.2,96.6 L169.1,95.4 L171.1,93.6 L169.8,89.5 L176.9,89.3 L181.0,91.5 L184.0,91.6 L184.5,95.1 L187.2,96.3 L189.7,95.4 L192.4,92.8 L197.7,98.4 L197.0,99.5 L204.4,102.3 L205.1,103.7 L207.1,104.6 L207.2,106.5 L199.9,109.6 L189.3,109.6 L181.5,115.3 L185.6,112.9 L191.6,111.3 L193.0,112.1 L191.5,113.2 L192.5,116.3 L194.7,117.1 L197.5,116.9 L199.1,115.0 L199.2,116.2 L200.3,116.8 L191.1,120.8 L189.8,120.7 L189.7,119.3 L192.6,117.9 L188.1,118.1 L187.0,117.2 L187.0,114.9 L184.6,114.3 L182.2,117.6 L175.2,118.4 L172.0,120.6 L168.8,120.7 L168.0,120.9 L168.5,121.8 L162.6,123.9 L161.6,123.6 L163.1,120.7 L162.4,117.8 L158.5,115.2 L152.7,112.9 L147.3,113.1 L142.8,112.2 L142.0,111.0 L141.4,111.7 L95.3,111.7 Z M160.0,89.3 L163.5,88.5 L161.6,89.8 L160.0,89.3 Z M167.0,72.0 L165.2,71.1 L165.3,70.5 L169.9,70.6 L172.8,71.5 L167.0,72.0 Z M166.1,89.9 L167.9,89.8 L167.2,90.6 L166.1,89.9 Z M144.0,68.4 L143.1,69.0 L138.6,68.5 L141.9,67.3 L144.0,68.4 Z M143.6,64.2 L139.7,64.1 L139.3,63.6 L143.6,64.2 Z M138.7,62.1 L140.7,62.7 L137.8,63.6 L136.5,63.2 L135.6,61.9 L138.7,62.1 Z M153.1,69.4 L146.0,68.6 L145.2,66.9 L143.5,66.2 L138.1,65.4 L138.8,64.8 L147.3,65.4 L148.8,65.9 L148.4,66.6 L151.4,67.3 L164.8,67.2 L166.9,68.5 L163.4,69.3 L153.1,69.4 Z M114.6,63.1 L116.9,63.4 L113.2,64.3 L110.8,63.8 L114.6,63.1 Z M115.1,62.0 L117.2,62.4 L112.4,62.7 L115.1,62.0 Z M207.3,107.8 L205.3,110.3 L206.4,109.8 L207.5,110.1 L207.0,110.7 L210.9,111.3 L210.4,112.5 L211.5,112.2 L212.3,114.1 L211.6,115.6 L209.7,115.4 L209.6,113.8 L207.7,115.2 L206.7,115.2 L207.8,114.4 L206.2,114.0 L201.2,114.0 L202.0,112.9 L201.3,112.5 L204.4,108.8 L206.9,107.3 L207.7,107.4 L207.3,107.8 Z M160.2,84.8 L166.5,87.2 L165.0,87.7 L161.5,86.5 L157.5,88.3 L156.9,87.3 L154.6,87.5 L156.1,86.6 L156.9,83.8 L160.2,84.8 Z M168.7,72.8 L170.3,72.1 L176.3,73.7 L176.5,74.5 L179.6,74.1 L181.3,75.2 L185.4,75.8 L188.4,78.1 L185.3,78.8 L191.9,80.3 L194.3,81.8 L196.9,81.9 L196.4,83.1 L193.5,85.0 L188.8,82.7 L186.6,82.9 L186.4,83.9 L191.1,86.1 L192.2,87.7 L191.6,88.9 L185.4,87.1 L189.7,90.1 L185.2,89.5 L175.3,85.6 L170.5,86.3 L169.1,85.7 L170.2,84.5 L176.7,84.3 L176.2,83.7 L176.8,82.8 L178.9,81.2 L177.8,79.9 L171.9,78.5 L173.0,78.1 L168.4,76.4 L164.5,77.1 L152.2,76.0 L150.8,75.4 L152.6,74.7 L150.2,74.7 L149.7,73.0 L152.7,70.8 L157.0,70.4 L155.7,71.4 L157.0,72.5 L158.6,71.1 L162.8,70.4 L165.7,72.2 L165.4,73.3 L168.7,72.8 Z M142.5,69.8 L149.1,70.3 L142.9,73.3 L141.0,73.3 L140.0,71.0 L142.5,69.8 Z M95.2,66.5 L101.5,64.2 L106.3,64.0 L106.1,65.2 L104.8,65.8 L97.5,66.9 L95.2,66.5 Z M78.8,103.3 L80.4,103.2 L79.9,105.1 L81.4,106.4 L78.2,104.3 L78.0,103.1 L78.8,103.3 Z M124.2,61.2 L132.0,62.0 L133.9,63.5 L124.7,62.7 L126.3,62.2 L124.3,61.8 L124.2,61.2 Z M94.2,112.5 L90.6,112.0 L85.9,109.1 L90.4,109.5 L94.2,112.5 Z M97.4,69.3 L104.1,69.7 L107.5,70.9 L101.3,72.5 L99.2,73.7 L99.2,74.4 L94.8,75.2 L90.1,73.6 L93.4,70.6 L91.8,69.5 L97.4,69.3 Z M120.3,67.0 L123.5,66.7 L123.8,67.6 L122.8,68.4 L113.0,69.3 L110.2,68.8 L113.7,68.1 L103.8,68.0 L107.7,65.9 L118.2,67.6 L115.8,66.0 L117.4,65.4 L119.1,65.6 L120.3,67.0 Z M122.5,71.6 L124.3,72.2 L125.9,75.0 L131.7,76.7 L131.5,77.4 L128.8,77.5 L129.8,78.2 L129.3,78.8 L123.4,78.1 L111.1,79.1 L110.2,78.3 L106.5,78.1 L104.4,76.8 L112.6,76.1 L103.5,75.8 L102.6,75.2 L106.5,74.5 L101.0,74.1 L103.6,72.2 L108.0,71.2 L109.7,71.5 L108.9,72.3 L112.6,71.8 L114.9,72.6 L116.8,71.8 L119.7,73.9 L120.5,73.3 L119.3,71.5 L122.5,71.6 Z M132.6,72.2 L130.8,71.1 L132.7,70.3 L137.7,70.4 L138.1,70.9 L136.6,71.7 L139.1,72.4 L138.8,73.9 L136.1,74.6 L129.2,72.5 L129.2,72.0 L132.6,72.2 Z M122.3,70.7 L125.8,71.0 L124.4,72.1 L121.8,70.9 L122.3,70.7 Z M135.8,65.5 L137.1,66.3 L136.4,68.4 L133.7,68.5 L131.9,68.3 L131.9,67.3 L129.2,67.4 L129.1,66.1 L135.8,65.5 Z M140.0,59.0 L142.8,58.4 L142.1,58.0 L146.0,57.9 L153.6,59.5 L157.0,61.1 L151.6,62.9 L145.2,62.8 L143.4,62.1 L144.8,61.1 L141.7,61.1 L138.8,59.8 L140.0,59.0 Z M147.4,56.9 L157.5,55.6 L161.4,56.2 L162.6,55.3 L167.8,54.8 L196.9,55.6 L187.2,57.5 L190.9,57.5 L181.4,60.4 L171.8,61.2 L174.1,61.4 L173.0,61.7 L174.3,62.5 L167.1,64.7 L170.1,65.0 L165.7,66.4 L150.8,65.9 L150.6,65.1 L153.7,64.7 L152.9,63.5 L158.4,64.1 L153.4,62.7 L158.2,61.1 L155.1,59.6 L163.6,59.3 L154.0,59.2 L147.4,56.9 Z M174.6,81.0 L171.7,81.5 L171.3,80.7 L172.0,79.8 L173.5,79.5 L174.8,80.0 L174.6,81.0 Z M139.6,77.5 L140.6,78.2 L139.5,78.8 L133.7,77.7 L136.3,76.5 L139.6,77.5 Z M192.5,110.2 L196.9,111.2 L196.2,111.6 L192.5,110.2 Z M193.3,115.0 L193.9,115.8 L196.6,116.0 L195.2,116.7 L193.1,116.0 L192.7,115.5 L193.3,115.0 Z" />
<path d="M95.3,111.7 L141.4,111.7 L142.0,111.0 L142.8,112.2 L147.3,113.1 L152.7,112.9 L158.5,115.2 L162.4,117.8 L163.1,120.7 L161.5,123.2 L162.2,123.9 L168.4,121.9 L168.8,120.7 L172.0,120.6 L175.2,118.4 L180.8,118.3 L182.2,117.6 L184.6,114.3 L187.0,114.9 L187.0,117.2 L188.4,118.7 L183.1,120.6 L182.0,122.8 L183.2,123.7 L183.0,123.1 L183.5,123.5 L182.3,124.2 L177.2,125.1 L180.1,125.1 L176.2,125.9 L176.4,127.2 L175.2,128.5 L174.1,127.5 L174.9,129.4 L173.4,131.3 L173.8,130.1 L172.7,128.1 L172.8,129.9 L171.7,129.6 L172.8,130.2 L173.8,134.1 L168.2,137.5 L164.4,141.0 L164.5,143.3 L166.6,148.6 L166.0,151.4 L164.7,151.4 L163.8,150.2 L161.9,146.9 L162.2,145.8 L160.5,143.5 L158.1,144.0 L156.0,142.7 L150.7,143.1 L151.0,144.8 L144.6,143.7 L142.2,144.2 L138.1,147.0 L138.1,150.2 L137.4,150.3 L135.0,149.4 L131.7,144.4 L129.2,143.8 L128.1,145.1 L126.8,144.6 L122.5,140.4 L115.0,141.1 L108.6,139.2 L104.8,139.1 L102.5,136.6 L99.0,135.7 L92.7,126.2 L92.4,122.1 L93.5,117.5 L92.2,113.1 L94.8,113.3 L95.7,114.9 L95.3,111.7 Z M41.0,159.9 L42.0,160.8 L40.1,161.6 L39.9,160.5 L41.0,159.9 Z M40.0,158.8 L39.3,159.1 L39.0,158.3 L40.0,158.8 Z M38.7,158.1 L37.8,158.2 L37.9,158.0 L38.7,158.1 Z M36.6,157.2 L37.2,157.8 L36.5,157.8 L36.6,157.2 Z M34.4,156.3 L34.2,156.9 L33.7,156.6 L34.4,156.3 Z M22.6,92.7 L24.0,93.5 L20.9,93.0 L22.6,92.7 Z M44.6,96.7 L46.4,97.4 L43.3,98.8 L42.5,98.4 L42.2,97.6 L44.6,96.7 Z M65.0,77.2 L65.0,92.9 L68.3,93.4 L70.9,95.2 L74.2,93.7 L77.7,96.0 L80.5,99.1 L83.3,100.2 L82.4,102.0 L80.1,100.9 L79.6,99.4 L77.4,98.1 L76.5,96.5 L72.3,96.3 L66.9,94.1 L54.8,91.9 L53.0,92.2 L53.3,93.4 L47.1,94.8 L47.7,92.2 L49.4,91.6 L49.0,91.2 L43.3,94.4 L44.5,95.3 L42.9,96.4 L39.5,97.7 L35.9,100.0 L25.4,102.7 L37.1,97.4 L38.3,95.2 L34.9,96.0 L32.7,94.9 L30.1,95.6 L30.2,94.0 L29.1,93.4 L27.0,93.7 L24.4,92.5 L24.4,91.6 L23.1,90.9 L23.8,89.9 L25.7,88.1 L28.2,88.3 L32.0,87.1 L30.8,86.0 L32.0,85.4 L25.1,86.0 L22.6,85.5 L19.8,83.9 L25.9,82.4 L27.2,82.4 L27.0,83.2 L30.5,83.2 L22.1,79.4 L23.0,78.6 L26.0,78.5 L30.2,76.1 L39.0,74.4 L42.8,75.5 L65.0,77.2 Z M13.8,87.1 L18.9,87.9 L17.4,88.4 L14.1,87.8 L13.8,87.1 Z" />
<path d="M445.6,111.3 L442.9,112.6 L442.9,114.3 L441.9,115.0 L438.6,114.5 L437.4,117.5 L433.3,118.5 L434.8,121.4 L433.6,121.8 L433.8,122.8 L431.9,121.9 L423.7,121.2 L422.5,122.5 L418.6,122.2 L414.4,125.6 L411.2,124.7 L410.8,123.4 L410.0,123.4 L410.2,121.7 L408.2,120.5 L403.4,120.9 L397.8,117.5 L393.2,118.4 L393.3,124.5 L390.1,122.8 L387.5,123.7 L387.5,122.0 L385.6,121.5 L383.8,119.0 L385.5,119.2 L385.5,118.0 L388.4,117.9 L388.4,115.3 L385.3,114.9 L381.8,116.0 L381.0,115.8 L381.2,114.9 L380.1,113.8 L378.9,113.8 L377.4,112.7 L379.3,109.3 L381.0,110.2 L381.2,109.0 L384.6,107.2 L387.2,107.2 L392.9,109.0 L394.6,108.3 L399.4,109.1 L402.2,108.7 L402.6,107.9 L399.9,106.8 L402.8,105.1 L401.6,103.9 L402.4,103.3 L408.6,102.8 L415.1,101.1 L418.1,101.4 L418.6,103.1 L422.5,103.3 L422.4,104.2 L428.2,102.5 L427.5,103.1 L429.7,104.4 L433.4,108.6 L434.3,107.7 L436.6,108.7 L439.0,108.2 L442.6,110.5 L444.7,110.3 L445.6,111.3 Z" />
<path d="M393.3,124.5 L393.2,118.4 L397.5,117.4 L403.4,120.9 L408.2,120.5 L410.2,121.7 L410.0,123.4 L410.8,123.4 L411.2,124.7 L413.3,124.8 L413.8,125.6 L418.3,122.9 L418.8,123.1 L417.4,124.2 L421.8,125.3 L419.6,126.5 L417.7,126.3 L417.8,125.1 L415.6,125.5 L414.2,127.5 L412.8,127.4 L412.4,128.1 L413.6,128.5 L414.0,129.8 L413.1,131.5 L410.9,131.1 L410.9,130.1 L406.9,128.5 L404.0,126.6 L403.1,124.9 L400.8,124.7 L400.0,123.0 L397.7,122.1 L394.9,123.7 L395.2,124.5 L393.3,124.5 Z" />
<path d="M535.0,197.7 L541.0,199.8 L543.3,202.5 L546.1,203.5 L546.5,204.4 L544.9,204.6 L545.3,205.7 L551.2,211.0 L546.5,210.2 L543.4,206.8 L541.2,206.1 L538.8,207.1 L539.0,208.3 L537.7,208.9 L535.1,208.6 L535.0,197.7 Z M554.4,199.5 L555.2,200.9 L554.7,201.3 L554.0,199.7 L551.1,197.9 L551.6,197.5 L554.4,199.5 Z M552.2,203.1 L549.5,203.9 L547.2,202.9 L549.7,202.5 L550.0,201.7 L550.4,202.6 L551.3,202.5 L552.7,201.3 L552.6,200.3 L553.6,200.3 L553.9,201.5 L552.2,203.1 Z M557.9,202.3 L559.8,204.7 L558.6,204.3 L557.5,201.9 L557.9,202.3 Z" />
<path d="M535.0,197.7 L535.1,208.6 L533.6,207.2 L529.4,207.4 L531.1,205.6 L529.9,202.4 L522.8,199.3 L521.6,200.2 L521.3,198.9 L520.0,198.1 L523.0,197.5 L520.4,197.0 L517.5,194.9 L520.6,194.0 L523.3,194.7 L524.0,198.0 L525.8,199.0 L529.1,196.2 L535.0,197.7 Z M508.3,208.2 L508.5,209.0 L507.4,210.3 L506.0,210.6 L506.6,208.8 L508.3,208.2 Z M523.7,204.9 L524.2,202.4 L524.5,203.7 L523.7,204.9 Z M496.5,186.5 L495.5,188.0 L496.7,189.5 L496.5,190.3 L498.3,191.9 L496.4,192.1 L495.9,194.7 L494.3,195.8 L493.6,200.0 L493.3,199.5 L491.4,200.2 L490.8,199.2 L488.8,198.6 L486.8,199.2 L486.2,198.4 L483.7,198.3 L483.4,196.0 L481.8,194.1 L481.6,192.7 L482.8,190.0 L484.2,192.1 L488.1,190.9 L489.7,191.3 L491.0,191.0 L493.1,186.2 L496.5,186.5 Z M515.6,198.0 L517.5,198.5 L518.1,199.8 L513.2,199.0 L513.6,198.1 L515.6,198.0 Z M511.5,199.7 L510.0,198.7 L511.7,198.6 L512.1,199.1 L511.5,199.7 Z M513.2,189.7 L514.5,191.5 L514.4,192.9 L513.5,192.8 L513.5,194.9 L512.3,191.7 L513.2,189.7 Z M504.9,191.9 L506.8,191.8 L508.4,190.6 L507.4,192.6 L500.3,193.0 L500.1,194.2 L501.6,195.7 L505.6,194.4 L505.4,195.2 L504.7,194.9 L502.5,196.5 L505.3,202.3 L504.4,202.8 L503.7,202.2 L504.5,200.8 L502.5,201.0 L502.7,200.3 L501.5,199.4 L501.6,197.7 L500.5,198.2 L500.7,202.6 L499.7,202.8 L498.9,202.3 L499.2,199.2 L497.9,198.0 L499.7,193.1 L501.5,191.2 L504.9,191.9 Z M500.5,210.5 L498.3,209.3 L499.8,209.0 L501.3,210.0 L500.5,210.5 Z M502.2,207.6 L504.8,206.9 L504.6,207.8 L499.9,208.0 L501.2,207.1 L502.2,207.6 Z M497.1,207.3 L498.1,207.2 L498.5,207.9 L494.6,208.4 L496.5,206.9 L497.1,207.3 Z M480.8,204.1 L481.0,204.7 L484.2,204.8 L484.6,204.1 L487.7,204.9 L488.3,206.0 L492.8,207.3 L490.9,207.9 L480.5,206.3 L475.6,204.8 L476.8,203.2 L480.8,204.1 Z M474.0,195.2 L474.8,197.3 L476.8,198.5 L476.4,203.1 L474.5,203.1 L471.0,200.4 L465.4,193.1 L464.3,190.3 L458.8,184.2 L462.5,184.6 L467.7,189.9 L469.4,189.9 L470.8,191.0 L473.1,193.2 L472.4,194.5 L474.0,195.2 Z" />
<path d="M185.6,281.1 L187.1,283.1 L191.6,284.5 L190.8,285.4 L189.2,285.4 L185.6,284.8 L185.6,281.1 Z M204.0,243.7 L202.5,250.7 L204.6,252.2 L204.4,253.3 L205.4,254.0 L205.4,254.9 L203.8,257.0 L201.3,257.9 L196.1,258.1 L196.4,261.2 L195.4,261.7 L191.5,261.8 L191.7,263.5 L192.8,264.0 L193.7,263.4 L194.2,264.3 L191.4,265.9 L190.7,268.4 L187.8,269.3 L187.4,270.5 L190.6,272.1 L190.0,273.6 L188.1,274.5 L187.0,276.5 L184.8,277.9 L186.4,280.6 L180.1,280.0 L179.5,277.8 L177.8,277.3 L177.6,275.6 L179.4,273.8 L180.6,268.3 L181.3,268.0 L180.3,267.0 L180.9,266.3 L179.7,263.8 L180.4,263.4 L181.0,258.2 L182.0,257.6 L181.5,254.5 L182.7,253.4 L183.6,250.4 L182.4,245.6 L183.9,240.8 L186.2,238.2 L186.0,234.2 L187.8,233.4 L189.5,229.7 L191.7,230.2 L192.7,231.4 L193.4,230.0 L195.3,230.1 L198.6,233.2 L203.7,235.3 L203.9,236.0 L202.3,238.6 L207.2,239.0 L209.8,235.9 L210.6,238.2 L204.0,243.7 Z" />
<path d="M185.6,281.1 L185.6,284.8 L188.4,284.9 L186.4,286.0 L181.7,285.1 L175.6,281.4 L181.5,283.5 L182.9,281.6 L185.6,281.1 Z M184.0,222.7 L185.9,225.7 L185.4,227.3 L187.0,231.5 L188.2,231.3 L187.8,233.4 L186.0,234.2 L186.2,238.2 L183.9,240.8 L182.4,245.6 L183.6,250.4 L182.7,253.4 L181.5,254.5 L182.0,257.6 L181.0,258.2 L180.4,263.4 L179.7,263.8 L180.9,266.3 L180.3,267.0 L181.3,268.0 L180.6,268.3 L179.4,273.8 L177.6,275.6 L177.8,277.3 L179.5,277.8 L180.1,280.0 L185.7,280.5 L181.9,281.5 L181.7,283.1 L180.9,283.1 L175.1,280.5 L174.0,274.5 L176.5,271.6 L173.9,271.1 L175.5,269.6 L176.1,266.9 L177.9,267.5 L178.8,264.0 L177.7,263.6 L177.2,265.6 L176.1,265.4 L178.0,258.8 L177.4,255.3 L178.1,255.2 L180.9,247.4 L180.8,241.5 L181.8,239.4 L183.2,229.0 L182.7,223.9 L184.0,222.7 Z" />
<path d="M348.9,200.9 L349.4,204.2 L351.2,207.3 L348.3,207.4 L347.4,208.6 L347.3,213.0 L349.4,213.7 L349.5,215.5 L348.2,215.4 L345.3,212.7 L344.3,213.2 L340.4,211.6 L337.3,211.7 L336.2,205.5 L333.5,204.9 L331.9,206.3 L329.1,206.8 L327.2,203.2 L320.5,203.5 L320.3,203.0 L322.7,200.9 L324.3,201.6 L326.7,199.3 L327.3,196.3 L329.4,194.1 L330.9,186.4 L332.4,185.0 L337.3,186.6 L337.8,185.6 L342.8,184.6 L345.6,184.6 L347.4,186.2 L349.5,185.7 L351.4,187.5 L351.3,189.5 L352.0,189.7 L349.8,192.4 L348.4,198.1 L348.9,200.9 Z" />
<path d="M369.3,196.2 L368.3,194.8 L368.3,188.7 L370.2,186.3 L374.9,185.0 L381.6,177.6 L381.6,174.4 L385.2,173.3 L384.3,178.0 L381.0,184.5 L377.6,188.6 L371.9,192.9 L369.3,196.2 Z" />
<path d="M365.3,201.2 L362.9,199.5 L362.8,198.5 L356.8,195.1 L356.5,193.2 L358.4,190.2 L356.7,186.3 L358.8,184.2 L360.3,185.9 L363.5,187.4 L365.9,187.7 L367.9,186.3 L369.8,186.8 L368.3,188.7 L368.3,194.8 L369.3,196.2 L367.1,197.7 L365.3,201.2 Z" />
<path d="M340.9,179.6 L339.1,178.4 L339.3,176.5 L337.1,172.3 L336.6,172.4 L338.4,167.2 L339.8,167.3 L339.7,160.0 L341.7,160.0 L341.7,156.7 L361.4,156.7 L362.5,162.3 L364.0,163.4 L361.4,165.1 L360.4,170.8 L357.1,175.6 L356.6,178.9 L356.2,176.2 L355.3,175.5 L355.3,173.1 L354.6,172.9 L353.5,173.4 L354.0,174.9 L352.3,177.0 L350.0,176.2 L348.3,177.4 L344.6,177.6 L343.0,176.0 L341.8,176.2 L340.9,178.5 L339.8,179.0 L340.9,179.6 Z" />
<path d="M339.7,160.7 L339.8,167.3 L338.4,167.2 L336.6,172.4 L337.1,172.3 L338.1,174.4 L335.0,177.6 L331.8,178.2 L329.9,180.2 L325.5,181.0 L325.0,178.7 L323.3,177.4 L323.6,176.7 L325.8,176.7 L324.3,171.1 L323.3,171.1 L322.6,169.4 L323.3,167.2 L325.4,165.7 L326.5,159.4 L325.2,157.8 L324.8,155.3 L326.4,154.3 L339.7,160.7 Z" />
<path d="M180.5,160.5 L180.5,162.8 L176.8,163.3 L175.9,162.8 L176.0,162.3 L179.4,162.2 L178.7,160.9 L177.6,160.6 L178.0,160.2 L180.5,160.5 Z" />
<path d="M180.5,163.3 L180.5,160.5 L182.0,160.2 L186.1,162.3 L185.5,163.0 L181.7,162.9 L181.0,164.0 L180.5,163.3 Z" />
<path d="M456.3,58.3 L459.9,57.9 L467.0,60.4 L466.6,61.9 L462.9,62.1 L455.5,61.0 L454.2,59.8 L452.0,59.5 L456.3,58.3 Z M471.4,61.2 L475.6,62.2 L475.1,62.8 L465.7,63.5 L468.8,61.3 L471.4,61.2 Z M531.4,66.5 L541.8,67.4 L540.5,68.7 L531.6,69.0 L528.3,67.9 L529.2,66.8 L531.4,66.5 Z M547.0,67.8 L551.2,68.2 L549.3,68.9 L543.5,68.1 L543.9,67.5 L547.0,67.8 Z M533.1,71.1 L536.8,70.3 L539.1,70.9 L533.1,71.1 Z M374.7,59.0 L385.9,58.9 L379.3,60.0 L377.5,59.6 L378.5,59.1 L374.7,59.0 Z M337.9,102.8 L332.8,102.7 L333.1,101.9 L335.4,101.4 L337.9,101.9 L337.9,102.8 Z M389.2,70.4 L393.2,69.0 L392.7,68.2 L402.0,66.3 L413.6,65.1 L414.8,65.8 L397.5,69.5 L392.4,72.7 L392.7,74.1 L395.9,75.5 L389.5,75.4 L389.0,74.7 L386.0,74.2 L385.8,73.3 L387.5,73.0 L387.4,72.1 L390.7,70.6 L389.2,70.4 Z M538.2,103.9 L538.7,107.1 L541.1,111.7 L538.6,111.2 L537.6,113.6 L539.2,115.3 L539.2,116.5 L537.9,115.5 L536.8,116.7 L537.0,108.4 L536.0,106.8 L536.1,104.5 L537.7,103.8 L537.0,103.0 L537.8,102.8 L538.2,103.9 Z M518.0,123.0 L517.7,121.9 L518.6,121.8 L518.8,119.8 L518.4,118.4 L521.8,118.1 L525.0,112.6 L518.3,113.7 L517.6,112.1 L515.7,111.0 L512.8,110.4 L509.9,105.4 L508.4,104.8 L501.7,104.6 L500.3,105.4 L501.2,105.8 L501.2,106.8 L498.8,109.8 L496.5,110.8 L490.6,109.6 L484.4,111.5 L480.8,111.2 L478.2,109.6 L472.8,109.9 L470.4,109.2 L470.1,107.9 L464.8,106.6 L463.0,108.3 L463.7,109.3 L462.1,110.5 L453.7,108.7 L445.6,111.3 L444.7,110.3 L442.6,110.5 L439.0,108.2 L436.6,108.7 L434.3,107.7 L433.4,108.6 L429.7,104.4 L427.5,103.1 L428.2,102.5 L422.4,104.2 L422.5,103.3 L418.6,103.1 L418.1,101.4 L415.1,101.1 L408.6,102.8 L402.4,103.3 L401.6,103.9 L402.8,105.1 L399.9,106.8 L402.6,107.9 L402.2,108.7 L399.4,109.1 L394.6,108.3 L392.9,109.0 L387.2,107.2 L384.6,107.2 L381.2,109.0 L381.0,110.2 L379.3,109.3 L377.4,112.7 L378.9,113.8 L380.1,113.8 L381.2,114.9 L381.0,115.8 L381.8,116.0 L377.8,119.0 L381.0,123.7 L379.0,124.7 L375.8,122.5 L366.8,120.8 L361.1,118.0 L363.7,116.3 L362.8,115.6 L365.2,115.0 L363.7,114.9 L363.8,114.1 L366.2,113.5 L366.8,111.2 L362.3,109.4 L358.9,109.1 L358.4,108.0 L357.0,107.9 L357.3,107.1 L356.3,106.1 L353.0,106.5 L352.2,104.9 L354.5,104.4 L351.3,102.0 L351.5,100.8 L347.0,99.7 L345.5,97.6 L346.2,97.0 L345.7,95.5 L348.5,93.3 L346.8,92.5 L352.5,88.6 L350.1,87.4 L350.7,86.4 L349.2,85.1 L350.4,83.7 L348.4,81.8 L350.0,80.5 L347.4,79.4 L347.7,78.3 L353.6,76.9 L360.9,78.3 L368.4,80.9 L368.5,82.0 L364.0,83.4 L355.3,82.3 L358.0,83.5 L358.2,86.0 L361.7,86.9 L361.9,86.1 L360.9,85.4 L362.0,84.8 L366.0,85.8 L367.4,85.4 L366.3,84.2 L370.2,82.6 L373.3,83.2 L374.2,82.1 L372.8,81.1 L373.6,80.1 L372.4,79.1 L377.1,79.6 L378.0,80.5 L375.9,80.8 L375.9,81.7 L377.2,82.2 L379.8,81.9 L380.2,80.8 L389.5,78.6 L390.8,78.7 L389.1,79.7 L398.0,78.6 L399.9,79.6 L401.8,78.5 L400.0,77.5 L400.9,76.9 L405.8,77.4 L414.2,79.9 L415.3,79.0 L411.6,77.6 L412.1,76.8 L411.2,75.0 L416.6,71.6 L421.0,72.1 L421.3,73.0 L419.7,74.3 L421.3,76.0 L420.9,78.3 L422.8,79.3 L418.8,82.8 L420.7,83.1 L425.1,80.4 L424.1,79.5 L424.9,78.4 L423.1,78.2 L422.7,77.3 L424.0,75.6 L421.8,74.3 L424.8,73.2 L424.4,72.0 L426.1,72.9 L425.5,74.5 L427.3,74.8 L426.5,73.6 L429.3,72.9 L432.8,72.8 L435.8,73.8 L434.4,72.4 L434.2,70.6 L444.7,70.1 L443.4,69.3 L445.3,68.2 L455.4,66.6 L461.1,66.8 L467.9,66.0 L470.0,64.5 L473.9,63.9 L476.8,64.4 L474.5,64.8 L478.3,65.1 L478.7,65.9 L485.1,65.5 L490.2,66.9 L489.8,67.8 L482.3,69.7 L488.4,70.1 L489.2,71.1 L492.6,70.4 L505.3,71.7 L505.4,70.5 L511.6,70.8 L514.3,71.6 L515.1,72.7 L514.1,73.4 L518.8,75.4 L520.4,73.6 L523.1,74.4 L533.1,74.2 L531.9,72.7 L534.1,71.9 L549.2,73.0 L554.9,75.3 L565.0,75.3 L566.4,75.9 L566.2,77.2 L568.2,77.6 L579.7,77.4 L582.6,78.9 L584.7,78.3 L583.3,77.3 L584.1,76.5 L597.7,77.7 L0.0,78.4 L8.5,81.4 L8.3,82.4 L9.4,82.8 L9.0,81.6 L13.6,81.8 L16.8,83.4 L12.5,84.3 L12.4,85.9 L11.7,86.3 L6.7,85.2 L6.3,84.4 L2.7,84.4 L1.8,83.8 L2.2,83.2 L0.2,83.6 L0.9,84.4 L0.0,85.1 L600.0,85.1 L595.7,85.7 L598.9,88.4 L598.7,89.5 L595.6,89.2 L589.5,90.6 L583.9,93.6 L581.5,92.4 L577.2,93.7 L576.4,93.1 L574.8,93.8 L572.6,93.6 L570.0,96.3 L570.1,97.0 L572.0,97.3 L571.8,99.8 L570.2,99.8 L569.5,101.2 L570.2,101.9 L567.3,102.8 L566.7,104.7 L564.2,105.1 L563.7,106.8 L561.3,108.3 L559.1,101.1 L559.9,98.7 L561.3,97.0 L563.9,96.6 L572.8,91.5 L574.1,89.1 L572.1,89.3 L571.1,90.6 L566.9,92.5 L565.5,90.4 L561.2,91.0 L557.0,93.8 L558.4,94.8 L552.1,95.4 L552.2,94.2 L549.6,93.9 L547.6,94.8 L537.0,95.0 L525.2,102.1 L527.8,102.4 L530.3,103.8 L531.3,102.9 L533.2,103.0 L535.6,104.9 L533.4,112.6 L524.8,121.0 L522.6,122.0 L520.5,121.2 L518.0,123.0 Z M0.0,74.2 L4.0,74.6 L0.0,75.3 L598.2,75.4 L597.9,74.9 L0.0,74.2 Z M355.7,116.7 L360.9,117.6 L356.5,119.4 L355.5,119.1 L355.9,118.3 L354.1,117.8 L355.7,116.7 Z" />
<path d="M168.4,148.7 L170.3,148.6 L168.5,149.3 L168.4,148.7 Z M170.3,148.3 L171.7,149.0 L171.4,150.2 L170.3,148.3 Z M169.7,151.3 L170.8,153.8 L169.3,152.4 L169.7,151.3 Z" />
<path d="M198.0,279.8 L202.4,278.5 L203.8,279.3 L201.0,280.4 L200.3,279.8 L198.8,280.5 L198.0,279.8 Z" />
<path d="M325.2,60.6 L328.3,59.9 L335.9,61.8 L331.7,62.4 L328.5,65.3 L326.5,65.4 L322.9,64.4 L324.4,63.8 L318.7,61.9 L317.4,60.6 L322.0,60.0 L325.2,60.6 Z M351.8,77.4 L347.7,78.3 L348.4,77.1 L346.2,76.4 L343.6,77.0 L341.2,78.9 L335.4,77.7 L333.4,78.3 L333.1,79.3 L330.0,79.1 L329.5,80.0 L327.9,80.0 L322.6,85.4 L323.2,86.0 L322.6,86.6 L321.0,86.6 L319.9,88.1 L320.0,90.4 L321.1,91.2 L320.5,93.2 L318.4,95.3 L317.3,94.2 L314.0,96.2 L311.7,96.6 L309.4,95.7 L308.3,90.1 L317.5,85.9 L324.6,80.3 L332.0,77.0 L338.4,76.4 L340.9,75.0 L346.9,74.7 L352.2,75.9 L350.0,76.4 L351.8,77.4 Z M345.7,59.9 L343.2,60.8 L338.4,61.0 L333.5,60.8 L328.9,59.5 L338.2,58.9 L345.7,59.9 Z M341.2,63.6 L337.5,64.3 L334.5,63.9 L335.7,63.5 L334.7,62.9 L338.1,62.6 L341.2,63.6 Z" />
<path d="M222.1,55.6 L235.6,54.1 L254.8,54.2 L265.3,55.5 L246.8,56.4 L258.6,57.0 L261.8,56.5 L263.2,57.1 L261.4,58.1 L273.7,56.8 L278.7,57.2 L279.7,57.9 L266.6,59.7 L270.4,59.8 L267.2,62.1 L267.2,64.0 L269.2,65.1 L263.9,65.6 L266.9,66.5 L267.3,67.9 L265.6,68.1 L267.7,69.5 L264.0,69.7 L265.9,70.3 L265.4,70.9 L260.7,71.2 L262.8,72.3 L262.8,73.1 L258.7,72.8 L263.1,74.2 L263.7,75.6 L260.8,75.9 L257.4,74.3 L258.0,75.4 L256.1,76.3 L262.8,76.5 L253.8,79.2 L247.0,79.8 L243.0,82.2 L233.6,84.3 L232.2,85.3 L231.4,87.6 L228.6,88.9 L229.3,90.2 L227.7,93.2 L225.4,93.3 L222.9,91.9 L219.6,91.9 L213.9,87.3 L212.9,84.7 L210.6,83.2 L211.2,82.0 L210.1,81.4 L211.7,79.4 L214.2,78.8 L215.2,76.8 L210.9,77.9 L208.9,77.3 L209.4,75.3 L214.4,75.7 L210.0,74.1 L206.9,73.9 L208.8,72.4 L204.5,68.8 L202.3,68.2 L202.4,67.5 L197.9,66.5 L185.8,66.6 L181.0,65.0 L188.7,64.4 L177.8,63.3 L178.1,62.6 L190.5,61.0 L191.1,60.4 L186.6,59.8 L196.3,57.8 L195.6,57.1 L204.7,56.4 L211.6,56.9 L216.0,56.0 L225.8,57.3 L221.8,56.4 L222.1,55.6 Z" />
<path d="M414.9,274.4 L417.5,275.1 L417.1,276.2 L414.6,276.3 L414.9,274.4 Z" />
<path d="M508.3,208.2 L512.2,207.4 L508.5,209.0 L508.3,208.2 Z" />
<path d="M327.2,241.0 L328.0,240.2 L329.0,241.3 L330.8,241.8 L333.2,240.8 L333.2,234.6 L334.6,236.5 L334.8,238.1 L336.0,237.9 L338.9,235.5 L340.4,236.1 L342.8,235.8 L345.2,232.7 L349.1,230.2 L352.0,230.4 L353.2,234.0 L353.1,236.4 L352.2,236.1 L351.1,237.9 L352.1,238.8 L354.7,237.9 L353.7,241.3 L347.0,248.0 L343.0,249.9 L337.6,249.8 L333.5,251.4 L330.7,250.0 L329.9,247.7 L330.4,246.1 L327.2,241.0 Z M348.3,241.6 L346.8,241.4 L345.0,243.2 L346.8,244.3 L348.9,242.1 L348.3,241.6 Z" />
<path d="M348.3,241.6 L348.9,242.1 L346.8,244.3 L345.0,243.2 L346.8,241.4 L348.3,241.6 Z" />
<path d="M104.8,139.1 L108.8,138.8 L115.0,141.1 L122.5,140.4 L126.8,144.6 L128.1,145.1 L129.2,143.8 L130.6,143.7 L134.1,147.5 L135.0,149.4 L138.1,150.2 L136.9,156.0 L140.2,162.0 L142.6,163.1 L147.7,161.9 L148.7,161.2 L149.5,158.4 L154.9,157.5 L155.3,158.6 L153.6,162.9 L152.5,162.5 L151.9,163.6 L148.3,163.7 L148.3,164.6 L147.6,164.6 L149.2,166.6 L147.1,166.6 L146.3,168.6 L142.2,166.4 L139.1,167.3 L127.5,162.9 L124.2,160.1 L123.8,159.3 L124.6,157.7 L123.3,155.4 L117.9,150.7 L117.8,149.3 L116.0,148.1 L115.6,146.9 L113.0,145.1 L111.4,141.4 L108.7,140.4 L108.4,141.0 L108.9,143.1 L114.0,148.9 L115.6,152.9 L117.6,154.4 L116.9,155.3 L113.0,152.1 L112.8,150.0 L108.2,147.2 L109.1,147.1 L109.7,145.8 L107.5,144.1 L104.8,139.1 Z" />
<path d="M204.0,243.7 L205.0,243.5 L210.4,246.8 L211.3,247.9 L210.3,250.7 L208.4,251.6 L206.3,251.5 L202.6,249.9 L204.0,243.7 Z" />
<path d="M211.0,249.6 L210.6,248.7 L211.3,247.9 L210.4,246.8 L205.0,243.5 L204.0,243.7 L210.6,238.2 L210.6,236.9 L209.8,235.9 L209.0,236.3 L209.5,233.4 L207.7,233.3 L207.0,230.6 L203.4,230.2 L203.1,227.0 L204.2,223.7 L202.9,222.1 L202.9,220.5 L199.7,220.5 L199.2,216.3 L192.8,214.1 L191.0,212.6 L191.1,209.6 L188.9,209.9 L186.2,211.7 L182.4,211.7 L182.5,209.2 L181.2,210.2 L179.7,210.1 L178.0,209.1 L178.3,208.4 L176.7,205.9 L178.1,204.4 L178.5,202.2 L183.5,200.5 L184.3,195.2 L183.3,192.5 L184.6,191.7 L183.7,191.5 L183.6,190.5 L187.4,190.0 L188.2,191.5 L190.8,192.0 L194.4,189.7 L192.9,189.2 L192.7,187.0 L192.0,186.6 L194.8,187.1 L198.4,185.8 L198.8,184.7 L200.0,185.0 L200.8,186.8 L200.0,188.8 L201.6,191.2 L204.4,190.1 L206.7,190.3 L206.7,189.2 L211.8,189.8 L214.5,186.4 L215.8,190.2 L216.7,190.5 L216.8,191.6 L215.5,193.0 L216.0,193.5 L219.0,193.8 L219.0,195.4 L220.3,194.3 L225.2,195.9 L226.0,196.9 L225.7,197.8 L227.6,197.3 L233.4,198.2 L238.0,201.4 L240.7,201.9 L242.1,205.6 L241.5,208.4 L235.1,216.4 L234.6,223.1 L231.8,229.9 L230.0,231.6 L225.6,232.3 L220.6,234.8 L219.2,236.5 L218.5,241.2 L211.0,249.6 Z" />
<path d="M184.1,211.6 L186.2,211.7 L188.9,209.9 L191.1,209.6 L191.0,212.6 L192.8,214.1 L199.2,216.3 L199.7,220.5 L202.9,220.5 L202.9,222.1 L204.2,223.7 L203.6,226.6 L203.1,227.0 L201.5,225.6 L197.0,226.1 L195.5,230.4 L193.4,230.0 L192.7,231.4 L191.7,230.2 L189.5,229.7 L187.0,231.5 L185.4,227.3 L185.9,225.7 L184.0,222.7 L185.1,220.9 L184.4,218.3 L185.6,214.3 L184.1,211.6 Z" />
<path d="M183.5,200.5 L182.0,200.4 L178.5,202.2 L178.1,204.4 L176.7,205.9 L178.3,208.4 L178.0,209.1 L179.7,210.1 L181.2,210.2 L182.5,209.2 L182.4,211.7 L184.1,211.6 L185.6,214.3 L184.4,218.3 L185.1,220.9 L182.7,223.9 L173.3,217.8 L167.1,205.4 L164.6,203.6 L165.1,202.8 L164.3,201.3 L166.2,199.0 L165.9,200.7 L168.0,201.6 L168.9,200.9 L170.3,198.4 L172.3,197.7 L174.1,196.0 L174.4,193.6 L177.2,195.5 L178.2,197.2 L182.0,197.1 L183.3,197.9 L182.2,199.6 L183.5,200.5 Z" />
<path d="M188.5,191.3 L187.4,190.0 L183.6,190.5 L183.7,191.5 L184.6,191.7 L184.6,192.4 L183.3,192.5 L184.3,195.2 L183.5,200.5 L182.7,199.6 L183.3,197.9 L182.0,197.1 L178.2,197.2 L174.8,193.5 L171.0,192.7 L168.3,190.5 L171.5,186.9 L170.8,186.5 L171.1,183.6 L170.2,181.3 L171.3,180.1 L170.9,179.2 L173.9,177.6 L174.2,175.7 L175.2,174.9 L177.6,174.6 L181.0,172.7 L181.1,173.7 L178.5,175.9 L177.8,178.1 L178.7,178.2 L180.1,181.7 L183.2,181.8 L184.4,183.2 L187.8,183.2 L187.0,185.9 L187.8,187.5 L187.0,188.7 L188.5,191.3 Z" />
<path d="M171.1,178.9 L171.3,180.1 L170.2,181.3 L169.3,179.9 L169.7,179.5 L168.1,178.4 L165.9,179.9 L166.7,180.8 L165.2,181.3 L164.9,180.3 L162.0,179.5 L161.8,177.6 L164.3,178.7 L168.3,177.4 L171.1,178.9 Z" />
<path d="M162.4,177.4 L161.8,177.6 L161.7,179.7 L158.4,176.6 L158.1,177.4 L157.2,176.8 L156.8,175.2 L160.6,175.1 L162.4,177.4 Z" />
<path d="M160.6,175.1 L156.6,174.4 L153.9,171.8 L158.5,168.7 L161.4,168.4 L160.6,175.1 Z" />
<path d="M161.4,168.4 L158.6,168.7 L154.5,171.7 L153.8,170.4 L151.1,169.3 L151.4,168.3 L153.5,166.9 L159.1,166.9 L161.4,168.4 Z" />
<path d="M151.1,169.3 L153.8,170.4 L153.7,171.1 L152.5,171.4 L149.8,170.5 L151.1,169.3 Z" />
<path d="M146.3,169.1 L147.1,166.6 L149.2,166.6 L147.6,164.6 L148.3,164.6 L148.3,163.7 L151.4,163.7 L151.3,166.9 L153.0,167.1 L151.1,169.3 L149.9,170.2 L146.3,169.1 Z" />
<path d="M151.4,163.7 L152.5,162.5 L153.2,162.8 L152.7,165.8 L151.8,166.9 L151.4,163.7 Z" />
<path d="M198.8,184.7 L198.4,185.8 L194.8,187.1 L192.3,186.4 L192.9,189.2 L194.3,189.3 L193.0,190.9 L189.5,192.2 L187.0,188.7 L187.8,187.8 L187.0,185.9 L187.8,183.2 L184.4,183.2 L183.2,181.8 L180.1,181.7 L178.7,178.2 L177.8,178.1 L178.5,175.9 L181.1,173.7 L180.1,174.3 L180.6,175.9 L179.9,176.9 L180.5,178.2 L181.2,178.1 L181.0,175.1 L183.1,174.4 L183.4,173.1 L186.3,175.8 L189.6,175.6 L191.9,176.6 L196.9,175.5 L195.5,176.0 L198.6,177.7 L198.9,179.1 L200.4,179.4 L199.1,180.4 L199.5,181.6 L198.1,182.2 L197.6,183.4 L198.8,184.7 Z" />
<path d="M205.8,190.2 L201.6,191.2 L200.6,190.4 L200.0,188.8 L200.8,186.8 L200.0,185.0 L197.6,183.4 L198.1,182.2 L199.5,181.6 L199.1,180.4 L200.4,179.4 L204.8,183.4 L203.3,186.6 L205.8,190.2 Z" />
<path d="M209.1,189.5 L206.7,189.2 L206.7,190.3 L205.8,190.2 L204.0,187.8 L203.3,186.6 L204.8,183.4 L210.1,183.8 L209.2,185.2 L210.0,187.3 L209.1,189.5 Z" />
<path d="M213.9,186.4 L211.8,189.8 L209.1,189.5 L210.0,187.3 L209.2,185.2 L210.1,183.8 L211.9,184.3 L213.9,186.4 Z M310.3,110.9 L313.5,111.7 L312.4,114.0 L311.2,114.1 L310.1,115.5 L310.0,116.2 L310.8,116.0 L311.4,116.7 L311.8,117.8 L311.2,118.3 L311.7,119.6 L312.6,119.8 L312.4,120.5 L310.9,121.5 L307.6,121.0 L305.2,121.6 L305.0,122.6 L303.0,122.8 L296.8,121.0 L297.7,120.0 L298.0,116.7 L295.1,114.1 L292.5,113.4 L292.3,112.2 L297.3,112.3 L296.8,110.4 L298.4,111.1 L302.2,109.8 L302.7,108.5 L304.2,108.1 L307.1,110.2 L310.3,110.9 Z M314.6,122.3 L315.7,121.7 L315.4,124.4 L314.6,124.1 L314.6,122.3 Z" />
<path d="M174.4,193.6 L174.1,196.0 L172.3,197.7 L170.3,198.4 L168.9,200.9 L168.0,201.6 L165.9,200.7 L167.0,197.8 L166.7,197.1 L166.1,197.8 L165.1,197.1 L165.1,195.1 L166.5,192.1 L168.6,191.1 L171.0,192.7 L172.8,192.7 L174.4,193.6 Z" />
<path d="M189.5,162.5 L190.4,162.6 L190.3,163.4 L188.0,163.4 L187.9,162.7 L189.5,162.5 Z" />
<path d="M170.7,162.5 L173.0,163.5 L171.3,163.9 L169.4,163.0 L170.7,162.5 Z" />
<path d="M162.9,154.7 L169.4,155.8 L176.4,159.6 L170.4,160.3 L171.5,159.3 L169.8,158.8 L168.8,157.4 L163.1,156.1 L163.7,155.6 L158.4,156.9 L162.9,154.7 Z" />
<path d="M352.0,230.4 L346.7,229.2 L346.2,227.5 L343.6,225.5 L342.1,222.9 L345.1,223.3 L348.2,220.1 L350.5,219.2 L350.6,219.8 L354.7,221.2 L354.4,227.2 L352.0,230.4 Z" />
<path d="M349.1,230.2 L345.2,232.7 L342.8,235.8 L340.4,236.1 L338.9,235.5 L336.0,237.9 L334.8,238.1 L334.6,236.5 L333.2,234.6 L333.2,229.8 L334.8,229.7 L334.9,223.8 L338.7,223.1 L339.3,223.8 L341.8,222.8 L343.6,225.5 L346.2,227.5 L346.7,229.2 L349.1,230.2 Z" />
<path d="M333.2,240.8 L330.8,241.8 L329.0,241.3 L328.0,240.2 L327.2,241.0 L326.0,239.7 L323.8,230.2 L319.7,223.5 L319.6,222.2 L322.4,221.6 L323.4,222.4 L330.4,222.2 L331.6,223.0 L335.6,223.2 L340.1,222.2 L341.8,222.7 L339.3,223.8 L338.7,223.1 L334.9,223.8 L334.8,229.7 L333.2,229.8 L333.2,240.8 Z" />
<path d="M272.1,170.7 L270.6,168.8 L273.1,165.9 L275.7,165.7 L279.7,169.0 L280.8,172.6 L272.2,172.7 L271.9,171.4 L276.9,170.9 L274.9,170.2 L272.1,170.7 Z" />
<path d="M280.8,172.6 L279.7,169.0 L280.6,167.7 L290.8,167.5 L289.2,151.8 L291.8,151.7 L305.2,160.5 L305.3,161.6 L307.1,161.4 L307.1,165.3 L306.1,167.4 L298.2,168.4 L294.1,171.1 L293.3,170.9 L291.3,173.8 L291.0,176.1 L287.3,176.4 L285.6,175.3 L286.0,174.4 L284.8,172.8 L283.1,173.6 L280.8,172.6 Z" />
<path d="M271.6,158.4 L271.9,157.8 L278.5,157.8 L278.5,154.6 L280.1,154.4 L280.1,150.1 L285.5,150.2 L285.5,147.7 L291.8,151.7 L289.2,151.8 L290.8,167.5 L280.6,167.7 L279.7,169.0 L275.7,165.7 L272.6,166.5 L272.9,159.9 L271.6,158.4 Z" />
<path d="M304.5,182.9 L303.1,183.1 L302.8,178.1 L301.3,175.9 L302.4,174.1 L304.7,173.0 L306.0,173.9 L306.3,175.5 L304.5,179.2 L304.5,182.9 Z" />
<path d="M324.8,155.3 L325.2,157.8 L326.5,159.4 L325.4,165.7 L323.3,167.2 L322.6,169.4 L323.3,171.1 L324.3,171.1 L323.6,172.6 L322.2,170.8 L320.5,171.6 L318.3,171.0 L315.0,172.0 L313.0,171.1 L311.4,171.5 L309.1,170.3 L306.8,170.8 L306.0,173.9 L304.7,173.0 L303.6,173.5 L303.6,172.3 L301.7,171.9 L300.6,168.5 L306.1,167.4 L307.1,165.3 L307.1,161.4 L320.0,154.2 L323.6,155.9 L324.8,155.3 Z" />
<path d="M304.5,182.9 L304.5,179.2 L306.2,176.6 L306.1,172.4 L307.3,170.4 L309.1,170.3 L311.4,171.5 L313.0,171.1 L315.0,172.0 L318.3,171.0 L320.5,171.6 L321.8,170.7 L324.3,173.2 L319.6,181.7 L318.4,182.3 L316.9,181.6 L314.2,185.4 L309.8,186.3 L307.2,182.9 L304.5,182.9 Z" />
<path d="M324.2,171.9 L325.8,176.7 L323.6,176.7 L323.3,177.4 L325.0,178.7 L325.7,180.5 L324.2,183.0 L324.1,185.5 L326.4,188.3 L326.6,190.5 L323.9,189.6 L316.1,189.6 L316.3,188.2 L314.2,185.4 L314.6,184.2 L316.9,181.6 L318.4,182.3 L319.6,181.7 L322.6,175.4 L324.0,174.1 L324.2,171.9 Z" />
<path d="M301.5,175.0 L303.1,183.1 L301.8,183.5 L299.9,175.5 L301.5,175.0 Z" />
<path d="M300.0,175.0 L301.8,183.5 L296.7,185.5 L295.2,185.0 L294.6,182.9 L295.7,179.7 L295.1,175.1 L300.0,175.0 Z" />
<path d="M286.6,176.3 L289.7,175.8 L289.9,176.5 L291.0,176.1 L292.8,177.3 L295.3,177.3 L295.7,179.7 L294.6,182.9 L295.2,185.0 L292.3,184.7 L287.5,186.1 L287.4,183.8 L285.7,182.6 L286.3,179.3 L286.9,179.1 L286.1,177.0 L286.6,176.3 Z" />
<path d="M277.2,172.4 L283.1,173.6 L284.8,172.8 L286.6,176.3 L286.1,177.0 L286.9,179.1 L286.2,180.6 L284.3,180.8 L281.5,176.6 L280.1,176.6 L277.9,178.5 L274.8,175.0 L277.1,173.7 L277.2,172.4 Z" />
<path d="M272.2,172.7 L277.2,172.4 L277.1,173.7 L274.8,175.0 L272.2,172.7 Z" />
<path d="M285.9,180.6 L285.7,182.6 L287.4,183.8 L287.1,186.1 L285.0,185.3 L280.9,182.1 L283.0,179.4 L283.7,179.1 L285.1,181.2 L285.9,180.6 Z" />
<path d="M277.9,178.5 L279.3,177.0 L281.5,176.6 L282.5,179.4 L280.9,182.1 L278.4,180.4 L277.9,178.5 Z" />
<path d="M291.0,176.1 L291.3,173.8 L292.9,171.3 L298.2,168.4 L300.6,168.5 L301.7,171.9 L303.6,172.3 L303.2,174.0 L301.5,175.0 L295.1,175.1 L295.3,177.3 L292.8,177.3 L291.0,176.1 Z" />
<path d="M345.6,184.6 L340.7,184.8 L338.1,185.5 L337.3,186.6 L332.4,185.0 L330.9,186.4 L330.8,187.5 L328.6,187.1 L326.7,189.6 L324.1,184.3 L325.5,181.0 L329.9,180.2 L331.4,178.4 L335.0,177.6 L336.2,175.7 L338.1,174.8 L339.3,176.5 L339.1,178.4 L341.9,180.3 L345.6,184.6 Z" />
<path d="M330.8,187.5 L329.4,194.1 L327.3,196.3 L326.7,199.3 L324.3,201.6 L321.0,200.8 L319.9,201.8 L318.5,200.0 L319.8,199.1 L319.1,198.0 L320.8,197.3 L321.0,196.6 L323.3,197.5 L324.0,195.6 L323.1,193.3 L323.8,191.4 L322.1,191.2 L321.8,189.6 L326.6,190.5 L328.6,187.1 L330.8,187.5 Z" />
<path d="M318.8,189.6 L321.6,189.5 L322.1,191.2 L323.8,191.4 L323.1,193.3 L324.0,195.6 L323.3,197.5 L321.0,196.6 L320.8,197.3 L319.1,198.0 L319.8,199.1 L318.5,200.0 L314.7,195.2 L315.8,191.7 L318.8,191.6 L318.8,189.6 Z" />
<path d="M316.1,189.6 L318.8,189.6 L318.8,191.6 L315.8,191.7 L316.1,189.6 Z" />
<path d="M351.2,207.3 L355.4,209.5 L355.5,214.1 L354.5,216.2 L355.4,216.6 L350.3,218.0 L350.5,219.2 L348.2,220.1 L345.1,223.3 L341.1,222.3 L338.7,222.6 L336.5,220.2 L336.6,214.9 L340.0,214.9 L339.9,211.6 L342.9,213.0 L345.3,212.7 L348.2,215.4 L349.5,215.5 L349.4,213.7 L347.3,213.0 L347.4,208.6 L347.9,207.6 L351.2,207.3 Z" />
<path d="M354.6,208.7 L356.2,209.1 L357.1,210.3 L357.6,216.0 L359.5,217.7 L359.6,219.9 L358.4,221.4 L357.3,220.3 L357.4,217.7 L354.5,216.2 L355.8,210.9 L354.6,208.7 Z" />
<path d="M357.6,212.6 L362.5,212.6 L367.2,210.6 L368.0,217.8 L365.8,221.2 L362.3,222.7 L358.0,226.3 L357.8,227.5 L359.3,230.2 L359.1,233.6 L355.0,235.6 L354.3,236.2 L354.7,237.9 L353.5,237.9 L353.2,234.0 L352.0,230.4 L354.6,226.2 L354.7,221.2 L350.6,219.8 L350.3,218.0 L355.4,216.6 L357.4,217.7 L357.3,220.3 L358.4,221.4 L359.6,219.9 L359.5,217.7 L357.6,216.0 L357.6,212.6 Z" />
<path d="M353.5,237.9 L352.1,238.8 L351.1,237.9 L351.7,236.2 L353.1,236.4 L353.5,237.9 Z" />
<path d="M321.7,201.3 L320.7,202.8 L319.9,201.8 L321.0,200.8 L321.7,201.3 Z M320.5,203.5 L327.2,203.2 L329.1,206.8 L331.7,206.7 L332.4,205.3 L334.3,204.9 L334.2,205.5 L336.2,205.5 L336.9,211.8 L339.1,211.5 L340.0,212.1 L340.0,214.9 L336.6,214.9 L336.5,220.2 L338.7,222.6 L335.6,223.2 L322.4,221.6 L319.6,222.2 L320.3,217.4 L322.9,212.2 L320.5,203.5 Z" />
<path d="M350.8,197.4 L351.3,199.0 L348.9,200.9 L348.4,198.1 L350.8,197.4 Z" />
<path d="M359.5,138.8 L358.3,140.3 L358.2,141.1 L359.0,140.9 L359.0,141.5 L358.2,144.2 L357.1,141.3 L358.5,138.2 L359.7,137.9 L359.5,138.8 Z" />
<path d="M359.7,137.9 L358.5,138.2 L360.0,135.7 L360.7,135.7 L361.0,136.4 L359.7,137.9 Z" />
<path d="M382.6,214.1 L384.0,219.5 L382.8,219.5 L383.0,221.5 L378.5,234.9 L375.7,236.0 L373.4,235.0 L372.2,231.3 L372.4,228.9 L373.2,228.6 L374.1,225.8 L373.3,222.4 L374.1,220.4 L377.2,219.7 L379.5,217.7 L379.8,216.1 L380.5,216.3 L382.0,213.4 L382.6,214.1 Z" />
<path d="M359.0,140.9 L358.2,141.1 L358.6,139.1 L359.2,139.4 L359.0,140.9 Z" />
<path d="M272.1,170.7 L274.9,170.2 L276.9,170.9 L271.9,171.4 L272.1,170.7 Z" />
<path d="M315.8,142.8 L315.1,139.9 L312.7,137.8 L312.5,136.5 L313.6,135.6 L314.0,131.8 L315.8,131.1 L317.0,131.3 L317.0,132.2 L318.4,131.5 L317.7,132.7 L318.0,135.3 L316.9,136.1 L319.1,138.1 L319.1,139.4 L316.6,141.1 L316.6,142.5 L315.8,142.8 Z" />
<path d="M285.5,147.7 L285.5,145.3 L291.3,143.4 L293.8,141.9 L293.9,140.6 L297.8,139.6 L296.4,134.7 L298.0,133.8 L302.4,132.4 L314.0,131.8 L313.6,135.6 L312.5,136.5 L312.7,137.8 L315.1,139.9 L316.3,144.3 L316.2,149.2 L315.5,149.9 L317.2,152.7 L318.0,152.4 L320.0,154.2 L309.5,160.7 L305.3,161.6 L305.2,160.5 L285.5,147.7 Z" />
<path d="M359.2,139.4 L359.5,138.8 L361.4,139.5 L364.7,137.7 L365.3,139.8 L361.7,140.8 L363.3,142.5 L360.1,144.7 L358.3,144.4 L359.2,139.4 Z" />
<path d="M386.0,153.0 L390.0,153.2 L393.5,149.9 L393.8,150.5 L394.0,151.8 L393.1,151.8 L392.0,155.5 L386.7,155.0 L386.0,153.0 Z" />
<path d="M384.7,152.1 L385.0,150.0 L386.0,150.4 L385.6,152.3 L384.7,152.1 Z" />
<path d="M380.0,143.4 L380.7,145.8 L377.6,144.9 L378.8,143.3 L380.0,143.4 Z" />
<path d="M365.3,139.8 L364.7,137.7 L368.3,136.0 L368.8,132.8 L371.3,131.1 L374.6,131.4 L376.8,133.9 L375.7,136.7 L376.9,138.3 L378.9,139.2 L379.7,140.5 L379.5,141.7 L380.9,143.5 L378.8,143.3 L377.6,144.9 L374.5,144.7 L369.8,141.4 L365.3,139.8 Z" />
<path d="M392.0,155.5 L392.5,153.5 L393.3,153.1 L393.1,151.8 L394.0,151.8 L394.7,153.0 L397.9,154.1 L399.7,155.8 L397.5,159.3 L396.4,159.6 L396.3,161.6 L391.3,165.1 L388.5,165.6 L386.7,161.7 L391.7,160.0 L392.8,156.7 L392.0,155.5 Z M393.8,150.5 L393.5,149.9 L393.9,149.4 L393.8,150.5 Z" />
<path d="M578.7,219.8 L579.7,220.8 L579.2,221.0 L578.7,219.8 Z M578.0,219.5 L577.7,217.7 L578.8,219.6 L578.0,219.5 Z" />
<path d="M471.0,173.0 L470.6,171.0 L471.6,169.7 L473.8,169.3 L476.7,170.2 L477.5,169.1 L479.0,169.7 L479.4,170.8 L479.2,172.8 L476.4,174.1 L477.1,175.1 L472.5,175.6 L471.0,173.0 Z" />
<path d="M475.4,169.6 L471.6,169.7 L470.6,171.0 L471.0,173.0 L468.1,172.3 L468.3,171.0 L466.8,171.0 L465.4,178.0 L466.5,178.0 L467.4,181.0 L470.2,183.0 L468.6,183.9 L468.5,183.0 L466.2,181.9 L464.2,179.4 L463.9,180.4 L463.6,179.4 L466.0,173.5 L465.2,170.3 L463.7,168.2 L464.8,166.4 L462.3,162.6 L463.8,160.5 L466.9,159.3 L467.7,160.8 L468.8,160.9 L468.4,164.2 L472.0,162.8 L473.3,163.0 L474.5,164.3 L474.6,166.0 L476.0,167.4 L475.4,169.6 Z" />
<path d="M479.0,169.7 L477.5,169.1 L476.7,170.2 L475.4,169.6 L476.0,167.4 L473.3,163.0 L470.2,163.2 L468.4,164.2 L468.8,160.9 L467.7,160.8 L466.9,159.3 L468.6,157.6 L469.7,158.1 L469.4,156.2 L470.3,155.9 L472.0,158.8 L474.1,158.8 L474.7,160.2 L473.2,161.3 L475.2,162.2 L478.9,166.8 L479.0,169.7 Z" />
<path d="M466.9,159.3 L463.8,160.5 L462.3,162.6 L464.8,166.4 L463.7,168.2 L465.2,170.3 L466.0,173.5 L464.3,176.8 L464.2,171.5 L461.9,165.1 L459.0,167.2 L457.0,166.6 L457.2,163.0 L456.1,160.5 L453.9,158.9 L453.8,157.6 L454.4,157.8 L454.5,156.6 L455.3,156.2 L455.5,153.2 L456.8,153.6 L458.5,149.1 L460.7,147.9 L461.9,148.2 L462.2,146.3 L463.2,146.1 L464.5,147.5 L464.5,150.2 L462.9,151.6 L462.7,153.5 L464.4,153.3 L464.8,154.8 L465.9,155.1 L465.4,156.5 L467.4,157.4 L468.6,156.9 L466.9,159.3 Z" />
<path d="M473.9,175.9 L477.1,175.1 L476.4,174.1 L479.2,172.8 L479.3,168.0 L475.2,162.2 L473.2,161.3 L474.7,160.2 L474.1,158.8 L472.0,158.8 L470.3,155.9 L475.5,154.4 L477.9,155.4 L477.6,156.3 L478.4,157.0 L480.1,157.4 L477.9,158.9 L476.1,161.6 L481.5,167.9 L482.0,173.9 L475.3,179.0 L474.7,178.0 L475.1,176.8 L473.9,175.9 Z" />
<path d="M518.0,123.0 L518.0,123.0 L518.0,123.0 L518.0,123.0 Z M517.7,122.7 L518.0,123.0 L517.3,122.9 L516.6,123.5 L516.1,124.0 L516.2,125.2 L515.3,125.6 L515.0,125.9 L514.4,126.4 L513.3,126.7 L512.6,127.1 L512.5,127.8 L512.3,128.0 L513.0,128.3 L513.9,129.0 L513.7,129.4 L513.0,129.5 L511.8,129.6 L511.1,130.4 L510.4,130.3 L510.3,130.4 L509.5,130.1 L509.3,130.4 L508.8,130.6 L508.7,130.3 L508.3,130.1 L507.9,129.8 L508.3,129.1 L508.7,128.9 L508.6,128.6 L509.0,127.7 L508.9,127.4 L507.9,127.3 L507.1,126.8 L508.5,125.7 L510.3,124.8 L511.5,123.7 L512.2,124.2 L513.7,124.3 L513.4,123.4 L516.0,122.7 L516.7,121.7 L517.7,122.7 Z" />
<path d="M510.3,130.4 L513.7,129.4 L515.8,132.1 L515.2,134.9 L510.8,136.0 L510.2,132.2 L511.4,131.9 L510.3,130.4 Z" />
<path d="M446.3,111.2 L453.7,108.7 L462.1,110.5 L463.7,109.3 L463.0,108.3 L464.8,106.6 L470.1,107.9 L470.4,109.2 L472.8,109.9 L478.2,109.6 L480.8,111.2 L484.4,111.5 L490.6,109.6 L494.5,110.2 L492.5,113.1 L492.9,113.8 L496.8,113.2 L499.6,114.9 L499.4,115.5 L495.7,115.6 L489.1,118.7 L486.5,118.2 L485.6,119.3 L486.4,120.5 L484.0,121.9 L474.9,124.0 L468.1,122.3 L460.6,122.2 L458.8,119.6 L451.6,117.9 L451.0,117.2 L451.6,115.2 L450.5,113.9 L446.7,112.4 L446.3,111.2 Z" />
<path d="M462.2,146.3 L461.9,148.2 L460.7,147.9 L458.5,149.1 L457.6,152.2 L456.8,153.6 L455.5,153.2 L455.3,156.2 L454.5,156.6 L453.6,154.0 L452.8,155.1 L451.9,154.2 L454.0,151.7 L449.9,151.2 L449.7,150.1 L447.6,149.3 L447.0,150.4 L448.2,151.3 L446.8,152.5 L447.8,153.0 L448.2,157.2 L445.0,157.5 L445.1,158.8 L444.2,159.8 L441.8,160.9 L437.0,165.0 L437.0,165.8 L433.9,166.9 L433.1,176.1 L432.2,176.2 L431.5,177.5 L432.0,178.0 L430.5,178.5 L429.2,180.1 L427.7,178.5 L422.6,166.7 L421.0,157.8 L417.4,158.6 L415.3,156.5 L416.1,155.9 L415.6,155.3 L413.6,153.9 L414.7,152.8 L418.4,152.8 L417.0,149.2 L415.9,148.5 L417.7,146.7 L419.6,146.8 L424.0,141.7 L424.0,140.5 L425.4,139.6 L424.1,138.8 L422.9,136.2 L423.7,135.4 L428.1,135.6 L429.7,134.2 L431.5,136.2 L432.0,138.4 L432.0,139.2 L430.8,139.0 L431.2,140.8 L435.2,143.1 L433.5,145.4 L438.8,147.8 L446.8,149.3 L446.9,146.9 L447.9,146.5 L448.0,147.9 L449.6,148.8 L453.4,148.6 L452.8,147.1 L457.6,144.6 L459.0,145.0 L460.2,144.3 L461.0,145.3 L460.4,146.0 L462.2,146.3 Z" />
<path d="M454.5,156.6 L453.9,158.9 L452.4,155.4 L450.8,155.4 L450.5,157.0 L448.4,156.6 L447.8,153.0 L446.8,152.5 L448.2,151.3 L447.0,150.4 L447.6,149.3 L449.7,150.1 L449.9,151.2 L454.0,151.7 L451.9,154.2 L452.8,155.1 L453.1,154.0 L454.5,156.6 Z" />
<path d="M452.8,147.1 L453.4,148.6 L449.6,148.8 L448.1,148.2 L450.0,146.2 L452.8,147.1 Z" />
<path d="M446.9,146.9 L446.8,149.3 L445.4,149.4 L438.8,147.8 L433.5,145.4 L434.1,143.8 L435.9,142.7 L443.0,146.4 L446.9,146.9 Z" />
<path d="M429.7,134.2 L428.1,135.6 L423.7,135.4 L422.9,136.2 L424.1,138.8 L425.4,139.6 L424.0,140.5 L424.0,141.7 L419.6,146.8 L417.7,146.7 L415.9,148.5 L417.0,149.2 L418.4,152.8 L414.7,152.8 L413.6,153.9 L412.4,153.5 L410.6,151.0 L402.5,151.6 L403.1,149.6 L405.5,148.8 L404.5,146.3 L401.5,143.6 L404.2,144.5 L410.6,143.5 L411.6,141.2 L415.5,140.2 L415.4,139.2 L417.2,137.8 L416.5,136.7 L418.1,136.7 L419.4,134.8 L418.8,133.2 L419.7,132.5 L425.3,131.5 L427.0,133.5 L429.7,134.2 Z" />
<path d="M410.9,131.1 L415.3,131.4 L418.0,129.2 L418.9,129.6 L419.7,132.1 L422.1,130.9 L425.3,131.5 L418.8,133.2 L419.4,134.8 L418.1,136.7 L416.5,136.7 L417.2,137.8 L415.4,139.2 L415.5,140.2 L411.6,141.2 L410.6,143.5 L404.2,144.5 L401.5,143.6 L403.0,142.1 L402.8,141.1 L401.6,140.8 L400.9,138.4 L402.0,133.9 L405.0,134.4 L407.6,132.8 L407.9,131.5 L409.6,130.6 L410.9,131.1 Z" />
<path d="M413.1,131.5 L414.0,129.8 L413.6,128.5 L412.4,128.1 L412.8,127.4 L414.2,127.5 L415.6,125.5 L417.8,125.1 L417.4,125.9 L418.4,126.3 L415.9,126.5 L415.8,127.5 L422.8,127.6 L423.2,129.2 L424.8,129.4 L425.0,131.0 L422.1,130.9 L419.7,132.1 L418.9,129.6 L418.0,129.2 L415.3,131.4 L413.1,131.5 Z" />
<path d="M418.3,122.9 L419.7,122.0 L422.5,122.5 L423.7,121.2 L431.9,121.9 L433.8,122.8 L430.3,124.7 L428.2,124.9 L427.5,126.0 L424.6,126.1 L422.8,127.6 L415.8,127.5 L415.9,126.5 L419.6,126.5 L421.8,125.3 L417.4,124.2 L418.8,123.1 L418.3,122.9 Z" />
<path d="M387.5,123.7 L390.1,122.8 L392.4,124.6 L395.2,124.5 L394.9,123.7 L397.7,122.1 L400.0,123.0 L400.8,124.7 L403.1,124.9 L404.0,126.6 L406.9,128.5 L410.9,130.1 L410.9,131.1 L409.6,130.6 L407.9,131.5 L407.6,132.8 L403.7,134.6 L402.0,133.9 L401.9,132.5 L395.5,130.0 L392.5,130.1 L389.9,131.4 L389.8,128.4 L388.5,127.9 L388.9,126.7 L387.8,126.6 L388.2,125.2 L391.2,125.1 L389.5,123.2 L388.2,123.6 L388.0,124.8 L387.5,123.7 Z" />
<path d="M380.9,143.5 L379.5,141.7 L379.7,140.5 L378.9,139.2 L376.9,138.3 L375.7,136.7 L376.8,133.9 L375.7,133.4 L373.7,130.1 L373.5,127.6 L374.7,127.2 L376.9,128.8 L380.1,127.4 L380.6,127.9 L380.0,128.7 L382.0,130.7 L384.7,131.9 L389.7,131.8 L394.4,129.8 L401.9,132.5 L400.9,137.2 L401.6,137.5 L400.9,138.4 L401.6,140.8 L402.8,141.1 L403.0,142.1 L401.5,143.6 L404.5,146.3 L405.5,148.8 L403.1,149.6 L402.5,151.6 L395.7,150.5 L395.0,148.4 L391.2,149.2 L389.2,148.7 L385.9,146.9 L383.5,143.1 L381.6,142.8 L380.9,143.5 Z" />
<path d="M359.5,138.8 L361.0,136.4 L360.0,135.6 L359.8,134.3 L361.2,132.0 L365.9,132.2 L370.6,131.3 L368.8,132.8 L368.3,136.0 L361.4,139.5 L359.5,138.8 Z" />
<path d="M377.5,128.7 L372.8,126.3 L372.6,124.9 L375.0,124.6 L375.9,125.3 L376.0,126.9 L377.5,127.6 L377.5,128.7 Z" />
<path d="M318.4,95.3 L320.5,93.2 L321.1,91.2 L320.0,90.4 L319.9,88.1 L321.0,86.6 L322.6,86.6 L323.2,86.0 L322.6,85.4 L327.9,80.0 L329.5,80.0 L330.0,79.1 L333.1,79.3 L333.4,78.3 L334.4,78.2 L339.2,80.1 L339.8,83.3 L337.0,83.8 L335.4,85.0 L335.6,86.0 L329.7,88.8 L328.5,91.1 L331.3,93.2 L329.8,95.1 L328.0,95.5 L326.5,99.9 L324.4,99.7 L323.5,101.0 L321.6,101.1 L318.4,95.3 Z" />
<path d="M347.0,99.7 L351.5,100.8 L351.3,102.0 L354.5,104.4 L352.5,104.7 L353.0,106.5 L351.5,106.6 L350.9,107.8 L342.2,106.8 L339.2,107.4 L338.7,105.9 L339.7,105.5 L339.1,103.5 L342.6,102.9 L344.3,101.4 L344.2,100.7 L347.0,99.7 Z" />
<path d="M353.0,106.5 L356.3,106.1 L357.3,107.1 L357.0,107.9 L361.0,109.7 L366.8,110.7 L366.2,113.5 L358.3,116.2 L358.4,117.1 L352.9,116.1 L352.8,115.5 L351.2,115.7 L349.3,117.9 L347.8,117.9 L347.1,117.5 L349.8,115.6 L347.8,113.2 L345.9,112.6 L341.4,113.8 L337.9,113.6 L336.8,112.7 L337.5,110.9 L339.9,109.3 L339.2,107.4 L342.2,106.8 L350.9,107.8 L351.5,106.6 L353.0,106.5 Z" />
<path d="M339.1,103.5 L339.7,105.5 L338.7,105.9 L340.0,108.9 L337.5,110.9 L338.0,111.6 L336.0,110.9 L333.0,111.3 L329.3,109.4 L327.0,109.3 L325.0,108.2 L323.5,105.1 L323.5,103.8 L329.4,101.9 L339.1,103.5 Z" />
<path d="M328.3,113.2 L328.2,113.8 L327.2,113.8 L327.0,115.3 L324.4,116.0 L320.3,114.8 L315.8,114.9 L316.5,114.1 L321.6,114.2 L321.5,112.9 L322.7,111.9 L327.5,112.1 L328.3,113.2 Z" />
<path d="M336.8,112.7 L337.7,113.1 L335.0,116.2 L330.8,117.1 L327.3,115.3 L328.3,113.2 L329.8,113.8 L334.7,112.3 L336.8,112.7 Z" />
<path d="M344.4,113.0 L347.8,113.2 L349.6,116.1 L348.1,116.0 L347.5,117.4 L346.8,116.8 L346.9,115.3 L344.4,113.0 Z" />
<path d="M347.1,117.5 L349.3,117.9 L348.1,118.5 L347.6,120.5 L345.4,119.7 L342.6,120.5 L338.2,120.3 L337.8,119.1 L335.9,118.7 L333.7,116.5 L338.6,113.2 L341.4,113.8 L344.4,113.0 L346.9,115.3 L347.1,117.5 Z" />
<path d="M344.2,100.7 L344.3,101.4 L342.6,102.9 L339.1,103.5 L337.9,102.8 L337.9,101.9 L335.4,101.4 L335.1,100.0 L341.4,99.4 L344.2,100.7 Z" />
<path d="M345.5,97.6 L347.0,99.7 L344.2,100.7 L339.8,99.6 L335.1,100.0 L336.0,97.7 L337.5,97.1 L338.9,98.4 L340.2,98.3 L340.5,97.0 L341.9,96.7 L345.5,97.6 Z" />
<path d="M346.6,94.2 L345.7,95.5 L346.2,97.0 L345.5,97.6 L340.5,97.0 L340.7,96.1 L339.0,95.7 L338.9,94.7 L346.6,94.2 Z" />
<path d="M323.5,103.8 L325.0,108.2 L320.4,109.6 L322.7,111.9 L321.5,112.9 L321.7,114.0 L312.4,114.0 L313.5,111.7 L311.1,111.4 L310.1,109.8 L310.0,106.9 L311.4,106.3 L311.5,104.2 L314.7,103.3 L314.2,101.8 L316.5,101.7 L318.2,103.3 L320.9,102.6 L323.5,103.8 Z" />
<path d="M337.8,119.6 L338.2,120.3 L342.6,120.5 L345.4,119.7 L347.6,120.5 L346.1,122.4 L346.7,123.3 L343.5,123.6 L343.5,124.5 L338.3,124.5 L337.3,122.8 L338.3,121.3 L337.5,120.6 L337.8,119.6 Z" />
<path d="M343.8,134.5 L341.2,135.2 L339.2,134.6 L339.5,133.9 L343.8,134.5 Z M338.3,124.5 L344.3,124.1 L343.8,125.1 L339.5,125.6 L340.7,126.5 L339.8,126.8 L338.0,125.9 L338.9,128.0 L338.3,128.4 L340.0,129.7 L340.1,130.6 L338.5,130.2 L339.0,131.0 L338.0,131.2 L338.6,132.7 L337.5,132.7 L336.1,132.0 L333.7,127.8 L334.5,126.0 L338.3,124.5 Z" />
<path d="M374.6,131.4 L371.3,131.1 L365.9,132.2 L361.2,132.0 L360.2,133.7 L359.6,132.9 L360.3,132.3 L357.9,132.0 L356.7,133.0 L354.2,133.2 L351.0,132.2 L349.5,133.1 L346.1,132.3 L343.9,129.7 L344.7,128.4 L343.6,127.6 L345.5,126.0 L348.0,125.9 L348.7,124.7 L351.9,124.9 L355.9,123.3 L358.6,123.3 L363.9,125.1 L371.0,124.1 L372.6,124.9 L372.8,126.3 L374.7,127.2 L373.5,127.6 L374.6,131.4 Z M343.5,123.6 L346.7,123.3 L348.3,124.5 L343.9,126.4 L343.4,125.7 L344.3,124.1 L343.5,123.6 Z" />
<path d="M335.0,125.3 L333.6,127.3 L332.3,126.3 L332.2,123.0 L332.9,122.2 L335.0,125.3 Z" />
<path d="M327.6,115.9 L331.4,116.8 L332.3,118.0 L331.7,118.6 L326.6,118.0 L326.2,118.7 L330.9,122.3 L326.7,120.8 L324.8,118.2 L323.8,118.0 L323.3,118.7 L322.8,118.1 L322.8,117.6 L325.5,117.6 L326.3,116.3 L327.6,115.9 Z" />
<path d="M316.0,114.2 L315.8,114.9 L317.4,115.2 L317.3,115.9 L312.1,117.1 L310.8,116.0 L310.0,116.2 L310.1,115.5 L312.4,114.0 L316.0,114.2 Z" />
<path d="M310.1,109.8 L310.3,110.9 L309.5,110.8 L310.1,109.8 Z" />
<path d="M310.3,108.7 L309.5,110.8 L304.2,108.1 L308.3,107.6 L310.3,108.7 Z" />
<path d="M311.5,104.2 L311.4,106.3 L310.0,106.9 L310.3,108.7 L308.3,107.6 L305.5,107.8 L307.8,104.9 L311.5,104.2 Z" />
<path d="M284.9,123.6 L286.2,122.9 L286.6,123.7 L288.9,123.6 L289.4,124.4 L288.6,124.8 L288.2,127.2 L287.5,127.3 L288.3,129.9 L286.9,132.0 L285.2,131.9 L285.3,129.6 L284.1,128.8 L285.4,125.4 L284.9,123.6 Z" />
<path d="M287.6,131.5 L288.3,129.9 L287.5,127.3 L288.2,127.2 L288.6,124.8 L289.4,124.4 L288.9,123.6 L286.6,123.7 L286.2,122.9 L284.9,123.6 L284.3,121.6 L286.7,120.4 L296.8,121.0 L300.6,122.4 L305.0,122.6 L305.1,123.5 L303.5,124.7 L301.4,125.0 L299.5,127.8 L300.2,128.8 L296.4,132.2 L292.7,132.2 L291.0,133.4 L289.1,131.8 L287.6,131.5 Z" />
<path d="M289.7,103.6 L289.9,104.8 L288.7,106.3 L285.7,107.2 L283.4,107.0 L284.7,105.3 L283.9,103.6 L287.4,101.5 L287.4,103.3 L289.7,103.6 Z" />
<path d="M576.3,228.5 L578.5,230.3 L577.9,230.7 L575.8,229.5 L573.4,226.9 L576.3,228.5 Z" />
<path d="M570.2,210.8 L570.7,211.4 L569.5,211.4 L568.9,210.4 L570.2,210.8 Z M569.5,209.4 L567.6,207.2 L568.2,207.2 L569.5,209.4 Z M568.1,209.8 L566.4,209.7 L566.2,208.8 L568.1,209.8 Z M566.1,206.7 L566.5,207.3 L563.7,205.7 L566.1,206.7 Z M561.9,205.1 L562.6,205.6 L560.8,204.6 L561.9,205.1 Z" />
<path d="M594.8,260.1 L593.4,262.2 L592.1,262.8 L591.1,262.2 L592.0,260.8 L589.7,259.2 L591.0,258.0 L591.2,255.7 L587.7,250.9 L590.5,252.1 L592.2,255.4 L592.3,254.2 L593.0,254.7 L593.3,256.0 L595.7,256.6 L597.5,256.2 L596.6,258.6 L595.3,258.6 L594.8,260.1 Z M582.8,266.0 L588.0,260.9 L588.7,262.2 L589.9,261.6 L590.4,262.3 L587.8,265.6 L588.5,266.5 L585.8,267.1 L584.4,269.9 L582.2,271.1 L577.8,270.4 L578.4,268.5 L582.8,266.0 Z" />
<path d="M546.1,261.4 L547.1,261.5 L546.5,265.4 L545.9,264.9 L544.8,266.1 L543.4,265.9 L541.2,261.2 L543.9,261.9 L546.1,261.4 Z M510.2,247.1 L507.0,248.3 L506.1,249.8 L499.8,250.0 L496.7,251.8 L494.4,251.7 L491.7,250.4 L493.0,247.0 L491.7,242.5 L488.9,236.9 L489.6,237.6 L489.1,236.1 L490.4,237.2 L489.0,234.0 L489.6,230.8 L490.2,229.6 L490.4,230.9 L491.1,229.7 L494.5,227.9 L501.4,226.2 L503.7,223.7 L503.9,222.1 L505.0,220.7 L505.7,222.1 L506.4,221.8 L505.8,221.0 L506.4,220.2 L507.1,220.6 L508.6,217.8 L511.0,216.6 L511.8,216.4 L513.9,218.1 L516.0,218.3 L515.7,217.4 L517.7,214.3 L521.0,213.6 L520.9,212.7 L519.7,212.2 L520.6,211.9 L525.5,213.8 L527.5,213.1 L528.3,213.9 L526.6,215.6 L525.7,217.9 L533.7,222.9 L534.8,222.3 L535.5,220.7 L536.1,214.0 L537.5,211.1 L539.9,217.6 L540.9,217.0 L542.3,218.3 L544.0,225.0 L548.1,227.3 L549.5,230.6 L550.1,230.2 L554.8,235.5 L555.9,240.2 L554.8,246.1 L551.7,250.5 L550.0,255.7 L547.2,256.4 L543.9,258.4 L541.5,257.4 L541.7,256.5 L539.4,258.0 L534.4,256.7 L532.6,253.6 L530.2,252.7 L530.3,250.7 L529.5,251.8 L528.0,252.1 L529.8,249.4 L529.7,248.2 L526.6,251.5 L521.7,246.7 L518.9,245.9 L510.2,247.1 Z" />
<path d="M436.3,180.8 L436.1,182.6 L433.9,183.4 L432.8,179.7 L433.6,177.0 L436.3,180.8 Z" />
<path d="M482.5,163.0 L481.1,162.5 L481.0,161.1 L484.6,159.9 L485.0,160.5 L483.9,162.2 L482.5,163.0 Z M433.8,122.8 L433.6,121.8 L434.8,121.4 L433.3,118.5 L437.4,117.5 L438.6,114.5 L441.9,115.0 L442.9,114.3 L442.9,112.6 L446.3,111.2 L446.7,112.4 L450.5,113.9 L451.6,115.2 L451.0,117.2 L451.6,117.9 L458.8,119.6 L460.6,122.2 L468.1,122.3 L474.9,124.0 L482.1,122.5 L486.4,120.5 L485.6,119.3 L486.5,118.2 L489.1,118.7 L495.7,115.6 L499.4,115.5 L499.6,114.9 L496.8,113.2 L492.9,113.8 L492.5,113.1 L494.5,110.2 L496.5,110.8 L498.8,109.8 L501.2,106.8 L501.2,105.8 L500.3,105.4 L503.7,104.3 L509.9,105.4 L512.8,110.4 L515.7,111.0 L517.6,112.1 L518.3,113.7 L525.0,112.6 L521.8,118.1 L518.4,118.4 L518.6,121.8 L517.7,121.9 L517.7,122.7 L516.7,121.7 L516.0,122.7 L513.4,123.4 L513.7,124.3 L511.5,123.7 L507.1,126.8 L501.8,128.5 L503.6,126.0 L502.7,125.1 L495.9,128.8 L499.5,131.4 L501.4,130.2 L503.9,130.9 L504.2,131.8 L501.8,132.3 L498.6,135.2 L500.4,136.1 L503.2,140.5 L503.2,141.8 L502.1,142.2 L503.5,143.6 L502.8,146.3 L501.9,146.5 L497.8,152.4 L493.2,155.4 L490.3,156.3 L489.7,155.8 L484.6,157.7 L484.1,159.5 L483.1,159.6 L483.1,157.7 L478.4,157.0 L477.6,156.3 L477.9,155.4 L475.5,154.4 L469.4,156.2 L469.7,158.1 L468.8,158.0 L468.6,156.9 L467.4,157.4 L465.4,156.5 L465.9,155.1 L464.8,154.8 L464.4,153.3 L462.7,153.5 L462.9,151.6 L464.5,150.2 L464.5,147.5 L463.2,146.1 L460.4,146.0 L461.0,145.3 L460.2,144.3 L459.0,145.0 L457.6,144.6 L454.2,146.9 L450.0,146.2 L448.0,147.9 L447.9,146.5 L443.0,146.4 L431.2,140.8 L430.8,139.0 L432.0,139.2 L432.0,138.4 L431.5,136.2 L429.7,134.2 L427.0,133.5 L425.0,131.0 L424.8,129.4 L423.2,129.2 L422.8,127.6 L424.6,126.1 L427.5,126.0 L428.2,124.9 L430.3,124.7 L433.8,122.8 Z" />
<path d="M503.0,152.7 L501.2,156.7 L500.2,154.1 L502.5,151.2 L503.3,151.7 L503.0,152.7 Z" />
<path d="M317.4,115.2 L320.3,114.8 L323.0,115.8 L323.2,117.4 L320.5,117.7 L321.0,119.9 L325.2,123.4 L326.5,123.4 L326.5,124.1 L330.6,126.1 L330.5,127.0 L328.1,126.0 L327.4,127.0 L328.6,127.7 L328.4,128.5 L326.1,130.2 L326.8,128.4 L325.7,126.6 L318.7,122.8 L317.0,120.2 L314.8,119.4 L312.4,120.5 L311.3,117.2 L316.5,116.2 L317.4,115.2 Z M324.6,129.8 L325.9,129.6 L325.2,132.3 L320.7,130.7 L320.9,129.8 L324.6,129.8 Z M314.5,125.2 L315.4,124.7 L316.3,125.9 L316.1,128.1 L314.7,128.5 L313.6,125.1 L314.5,125.2 Z" />
<path d="M316.5,101.7 L314.2,101.8 L313.5,99.1 L314.2,98.2 L317.6,97.1 L317.1,98.5 L318.2,99.3 L316.1,100.9 L316.5,101.7 Z M320.6,99.8 L321.1,100.7 L320.2,102.0 L318.4,101.1 L318.2,100.4 L320.6,99.8 Z" />
<path d="M289.7,103.6 L287.4,103.3 L287.4,101.5 L290.6,102.4 L289.7,103.6 Z M294.8,104.4 L295.1,103.4 L294.0,102.4 L291.5,101.6 L292.1,100.8 L291.6,100.4 L290.7,101.2 L289.7,98.7 L291.7,95.6 L295.0,95.6 L293.2,97.4 L296.7,97.2 L294.8,100.1 L296.5,100.2 L298.1,102.3 L299.3,102.6 L300.8,105.1 L302.8,105.5 L301.7,107.0 L302.4,107.9 L300.9,108.8 L290.4,109.8 L294.3,107.7 L291.2,106.7 L293.0,106.2 L292.1,105.3 L292.4,104.2 L294.8,104.4 Z" />
<path d="M275.8,82.6 L275.4,83.7 L277.3,84.8 L275.2,86.1 L268.9,87.5 L262.1,86.8 L263.7,86.0 L260.1,85.2 L263.0,84.9 L259.5,84.0 L260.6,82.9 L263.1,82.7 L265.7,83.8 L268.2,82.9 L270.3,83.4 L273.1,82.5 L275.8,82.6 Z" />
<path d="M377.3,123.6 L379.7,124.8 L381.0,123.7 L384.0,126.3 L382.6,126.4 L381.5,129.5 L380.0,128.7 L380.6,127.9 L380.1,127.4 L377.5,128.7 L377.5,127.6 L376.0,126.9 L376.5,126.3 L375.0,124.6 L377.5,124.9 L377.3,123.6 Z M376.9,128.8 L374.7,127.2 L376.2,127.6 L376.9,128.8 Z" />
<path d="M366.6,121.0 L375.8,122.5 L377.7,124.7 L372.6,124.9 L369.3,124.1 L369.1,122.3 L366.6,121.0 Z" />
<path d="M501.4,172.2 L500.5,170.9 L502.5,171.6 L502.1,173.0 L501.4,172.2 Z M504.3,176.7 L504.9,175.2 L505.8,175.1 L505.6,176.2 L506.8,174.6 L506.6,176.2 L505.0,178.3 L504.3,176.7 Z M510.6,179.3 L510.9,181.4 L510.3,182.9 L509.7,181.2 L508.9,182.1 L509.0,184.1 L507.0,183.1 L507.1,181.1 L506.0,180.3 L503.5,181.9 L503.2,181.4 L503.9,180.0 L505.8,178.9 L506.4,179.6 L509.1,178.4 L509.0,177.1 L510.4,177.9 L510.6,179.3 Z M497.5,177.8 L495.3,179.4 L499.2,174.4 L499.5,175.8 L497.5,177.8 Z M503.9,163.0 L504.2,164.9 L502.8,166.8 L502.9,169.5 L506.6,170.4 L506.8,172.5 L504.9,170.8 L504.5,171.4 L503.4,170.4 L501.0,170.3 L501.7,169.2 L501.2,168.8 L500.9,169.4 L499.9,167.7 L501.2,162.5 L503.9,163.0 Z M503.4,174.3 L503.1,173.5 L505.2,174.1 L503.3,176.0 L503.4,174.3 Z M509.2,173.1 L509.6,175.0 L508.4,174.5 L508.8,176.1 L508.0,176.5 L507.2,174.2 L508.2,174.3 L508.1,173.7 L507.1,172.4 L509.2,173.1 Z" />
<path d="M466.8,182.6 L468.5,183.0 L468.6,183.9 L470.2,183.0 L471.6,184.2 L473.7,191.2 L472.5,191.3 L469.0,188.8 L466.8,182.6 Z M496.5,186.5 L493.1,186.2 L491.0,191.0 L488.1,190.9 L484.2,192.1 L483.1,191.1 L482.8,190.0 L485.3,190.3 L485.6,188.9 L488.3,188.2 L490.3,185.8 L491.1,186.7 L492.2,186.2 L492.4,184.3 L494.5,181.8 L498.6,184.3 L496.5,186.5 Z" />
<path d="M492.4,184.3 L492.2,186.2 L491.1,186.7 L490.3,185.8 L492.4,184.3 Z" />
<path d="M323.0,115.8 L327.3,115.3 L327.6,115.9 L324.9,117.6 L322.9,117.5 L323.0,115.8 Z" />
<path d="M347.7,78.3 L347.4,79.4 L350.0,80.5 L348.4,81.8 L350.4,83.7 L349.2,85.1 L350.7,86.4 L350.1,87.4 L352.5,88.6 L351.9,89.4 L346.8,92.5 L338.1,93.6 L335.5,92.2 L335.9,90.5 L335.1,89.0 L335.9,88.0 L342.3,84.8 L339.3,82.7 L339.2,80.1 L334.4,78.2 L335.4,77.7 L341.2,78.9 L343.6,77.0 L346.2,76.4 L348.4,77.1 L347.7,78.3 Z" />
<path d="M337.6,111.6 L336.8,112.7 L334.7,112.3 L329.8,113.8 L328.1,112.6 L330.9,110.9 L337.6,111.6 Z" />
<path d="M325.0,108.2 L331.4,110.9 L329.2,112.0 L325.4,111.6 L323.9,112.4 L320.9,110.8 L320.4,109.6 L325.0,108.2 Z" />
<path d="M360.7,169.3 L361.4,165.1 L364.0,163.4 L365.4,166.8 L371.8,172.2 L370.6,172.5 L366.7,169.2 L364.2,169.2 L363.2,168.4 L362.7,169.7 L360.7,169.3 Z" />
<path d="M536.5,128.1 L534.9,129.7 L534.6,133.6 L533.8,134.8 L528.7,135.7 L526.3,137.6 L525.2,136.9 L525.1,135.7 L518.3,136.9 L520.0,138.1 L518.9,140.9 L517.8,141.6 L517.0,141.0 L517.4,139.5 L515.7,137.9 L521.0,134.3 L526.1,134.1 L527.9,131.2 L529.0,132.0 L532.4,129.7 L533.8,124.7 L535.6,124.4 L536.5,128.1 Z M541.0,120.1 L542.2,119.4 L542.6,121.3 L540.1,121.7 L538.6,123.4 L536.0,122.2 L535.1,124.1 L533.3,124.1 L533.0,122.4 L533.9,121.1 L535.6,121.0 L536.6,117.4 L541.0,120.1 Z M520.6,137.6 L523.2,136.1 L524.6,137.0 L523.7,138.0 L522.1,137.9 L521.7,138.9 L520.6,138.4 L520.6,137.6 Z" />
<path d="M203.1,227.0 L203.4,230.2 L207.0,230.6 L207.7,233.3 L209.5,233.4 L208.7,237.7 L207.2,239.0 L202.3,238.6 L203.9,236.0 L203.7,235.3 L198.6,233.2 L195.5,230.4 L197.0,226.1 L201.5,225.6 L203.1,227.0 Z" />
<path d="M386.7,161.7 L388.5,165.6 L387.3,166.1 L386.9,167.4 L375.0,172.2 L372.5,172.3 L371.0,168.0 L372.3,164.1 L378.3,165.1 L381.9,162.3 L386.7,161.7 Z" />
<path d="M358.3,144.4 L360.1,144.7 L362.5,143.4 L363.3,142.5 L361.7,140.8 L365.0,140.0 L369.8,141.4 L374.5,144.7 L379.1,145.0 L383.6,148.9 L383.7,150.7 L386.0,153.0 L386.7,155.0 L391.7,155.9 L392.8,156.7 L391.7,160.0 L381.9,162.3 L378.3,165.1 L372.3,164.1 L371.3,166.1 L368.2,160.9 L365.2,157.9 L364.2,153.9 L362.5,152.9 L358.6,146.6 L357.7,146.6 L358.3,144.4 Z" />
<path d="M354.6,134.8 L357.6,133.9 L356.1,135.0 L354.6,134.8 Z" />
<path d="M354.6,134.8 L356.4,134.9 L355.0,135.7 L353.8,134.9 L354.6,134.8 Z" />
<path d="M296.4,134.7 L297.8,139.6 L293.9,140.6 L293.8,141.9 L291.3,143.4 L285.5,145.3 L285.3,148.2 L281.0,148.6 L279.2,152.1 L276.8,153.9 L275.4,157.5 L271.7,157.7 L275.9,149.6 L279.0,146.6 L280.5,146.4 L284.1,143.5 L283.6,141.4 L285.6,138.0 L288.5,136.5 L290.1,133.8 L296.4,134.7 Z" />
<path d="M361.4,156.7 L341.7,156.7 L341.2,143.3 L341.9,140.7 L348.2,141.9 L351.6,140.8 L353.3,141.8 L357.1,141.3 L358.0,143.8 L356.9,147.0 L355.2,146.0 L354.0,143.6 L354.6,145.5 L359.5,153.5 L359.2,154.9 L361.4,156.7 Z" />
<path d="M341.7,160.0 L339.7,160.0 L339.7,160.7 L326.4,154.3 L323.6,155.9 L318.0,152.4 L317.2,152.7 L315.5,149.9 L316.2,149.2 L315.8,142.8 L316.6,142.5 L316.6,141.1 L319.1,139.4 L319.1,138.1 L325.4,139.6 L326.2,141.1 L331.8,142.9 L333.4,141.7 L333.0,140.4 L334.8,138.8 L338.2,139.0 L338.7,139.7 L341.5,140.2 L341.7,160.0 Z" />
<path d="M379.6,180.0 L374.9,185.0 L372.8,185.1 L369.8,186.8 L367.9,186.3 L365.9,187.7 L360.3,185.9 L357.8,182.4 L354.9,180.4 L356.4,179.4 L357.1,175.6 L359.8,172.4 L360.7,169.3 L362.7,169.7 L363.2,168.4 L364.2,169.2 L366.7,169.2 L369.3,170.9 L370.6,172.5 L369.4,174.0 L369.6,174.9 L371.3,175.2 L370.9,175.7 L372.8,178.1 L379.6,180.0 Z" />
<path d="M370.6,172.5 L372.2,172.7 L371.2,173.8 L371.9,174.3 L371.3,175.2 L369.6,174.9 L370.6,172.5 Z" />
<path d="M381.6,174.3 L381.6,177.6 L379.6,180.0 L372.8,178.1 L370.9,175.7 L371.9,174.3 L373.5,176.0 L381.6,174.3 Z" />
<path d="M356.5,194.9 L351.3,195.1 L349.7,195.8 L349.8,192.4 L352.0,189.7 L351.3,189.5 L351.4,187.5 L352.1,187.1 L355.6,187.0 L356.7,186.3 L357.5,187.4 L358.4,190.2 L356.5,193.2 L356.5,194.9 Z" />
<path d="M350.7,195.3 L351.3,197.2 L348.4,198.1 L348.8,196.1 L350.7,195.3 Z" />
<path d="M330.9,122.3 L327.4,120.0 L326.2,118.7 L326.6,118.0 L332.3,118.6 L332.4,120.7 L330.9,122.3 Z" />
<path d="M337.3,122.8 L338.3,124.5 L334.3,124.9 L334.3,123.6 L337.3,122.8 Z" />
<path d="M331.4,116.8 L333.7,116.5 L335.9,118.7 L337.4,118.9 L337.5,120.6 L338.3,121.3 L336.0,123.0 L336.3,122.2 L334.7,121.2 L334.2,121.9 L332.7,121.3 L332.0,120.8 L332.7,120.0 L331.9,119.3 L332.3,118.6 L331.7,118.6 L332.3,118.0 L331.4,116.8 Z" />
<path d="M333.5,122.4 L332.9,122.2 L332.3,123.6 L330.7,122.6 L331.7,121.0 L333.9,121.9 L333.5,122.4 Z" />
<path d="M334.3,123.6 L333.5,122.4 L334.4,121.3 L336.1,122.2 L334.3,123.6 Z" />
<path d="M197.2,175.4 L198.2,175.2 L198.4,176.5 L197.0,176.7 L197.2,175.4 Z" />
<path d="M351.4,187.5 L349.5,185.7 L346.6,186.0 L341.9,180.3 L339.8,179.0 L340.9,178.5 L341.8,176.2 L343.0,176.0 L344.1,177.4 L348.3,177.7 L350.0,176.2 L352.3,177.0 L354.0,174.9 L353.5,173.4 L355.3,173.1 L355.3,175.5 L356.2,176.2 L356.6,178.9 L354.9,180.4 L356.8,181.3 L358.8,184.2 L355.6,187.0 L351.4,187.5 Z" />
</g>
</svg>